<?xml version="1.0" encoding="UTF-8" standalone="no"?><svg xmlns="http://www.w3.org/2000/svg" xmlns:xlink="http://www.w3.org/1999/xlink" contentStyleType="text/css" height="1496px" preserveAspectRatio="none" style="width:1064px;height:1496px;background:#FFFFFF;" version="1.1" viewBox="0 0 1064 1496" width="1064px" zoomAndPan="magnify"><defs/><g><!--MD5=[697e110f9590970c7c0120cdc1a051d1]
cluster moteurJeu--><g id="cluster_moteurJeu"><path d="M8.5,139 L85.5,139 A3.75,3.75 0 0 1 88,141.5 L95,162.6094 L1054.5,162.6094 A2.5,2.5 0 0 1 1057,165.1094 L1057,678.5 A2.5,2.5 0 0 1 1054.5,681 L8.5,681 A2.5,2.5 0 0 1 6,678.5 L6,141.5 A2.5,2.5 0 0 1 8.5,139 " style="stroke:#000000;stroke-width:1.5;fill:none;"/><line style="stroke:#000000;stroke-width:1.5;fill:none;" x1="6" x2="95" y1="162.6094" y2="162.6094"/><text fill="#000000" font-family="sans-serif" font-size="14" font-weight="bold" lengthAdjust="spacing" textLength="76" x="10" y="155.5332">moteurJeu</text></g><!--MD5=[703d8294f503dec073b603f372d06e18]
cluster gameLaby.laby--><g id="cluster_gameLaby.laby"><path d="M327.5,714 L430.5,714 A3.75,3.75 0 0 1 433,716.5 L440,737.6094 L794.5,737.6094 A2.5,2.5 0 0 1 797,740.1094 L797,1486.5 A2.5,2.5 0 0 1 794.5,1489 L327.5,1489 A2.5,2.5 0 0 1 325,1486.5 L325,716.5 A2.5,2.5 0 0 1 327.5,714 " style="stroke:#000000;stroke-width:1.5;fill:none;"/><line style="stroke:#000000;stroke-width:1.5;fill:none;" x1="325" x2="440" y1="737.6094" y2="737.6094"/><text fill="#000000" font-family="sans-serif" font-size="14" font-weight="bold" lengthAdjust="spacing" textLength="102" x="329" y="730.5332">gameLaby.laby</text></g><!--MD5=[315bf7c36bcdbdaee5bb7549ab6e8767]
cluster javafx.application--><g id="cluster_javafx.application"><path d="M490.5,6 L614.5,6 A3.75,3.75 0 0 1 617,8.5 L624,29.6094 L624.5,29.6094 A2.5,2.5 0 0 1 627,32.1094 L627,103.5 A2.5,2.5 0 0 1 624.5,106 L490.5,106 A2.5,2.5 0 0 1 488,103.5 L488,8.5 A2.5,2.5 0 0 1 490.5,6 " style="stroke:#000000;stroke-width:1.5;fill:none;"/><line style="stroke:#000000;stroke-width:1.5;fill:none;" x1="488" x2="624" y1="29.6094" y2="29.6094"/><text fill="#000000" font-family="sans-serif" font-size="14" font-weight="bold" lengthAdjust="spacing" textLength="123" x="492" y="22.5332">javafx.application</text></g><!--MD5=[cce898caa4d5f78016fa5c4b914660c0]
class moteurJeu.FrameStats--><g id="elem_moteurJeu.FrameStats"><rect codeLine="1" fill="#F1F1F1" height="206.4844" id="moteurJeu.FrameStats" rx="2.5" ry="2.5" style="stroke:#181818;stroke-width:0.5;" width="270" x="22" y="459"/><ellipse cx="116.25" cy="475" fill="#ADD1B2" rx="11" ry="11" style="stroke:#181818;stroke-width:1.0;"/><path d="M118.25,471.5 Q118.4531,471 118.6875,470.75 Q118.9219,470.5 119.1875,470.5 Q119.6563,470.5 119.9531,470.7813 Q120.25,471.0625 120.25,471.7188 L120.25,473.2813 Q120.25,473.9375 119.9688,474.2188 Q119.6875,474.5 119.25,474.5 Q118.8594,474.5 118.6094,474.3281 Q118.3594,474.1563 118.25,473.7031 Q118.2031,473.3906 118.0313,473.2188 Q117.7188,472.8906 117.1563,472.7031 Q116.5938,472.5 116.0313,472.5 Q115.3281,472.5 114.7344,472.7813 Q114.1563,473.0625 113.7031,473.6875 Q113.25,474.3125 113.25,475.1719 L113.25,476.0938 Q113.25,477.125 114.0938,477.8125 Q114.9375,478.5 116.4375,478.5 Q117.3281,478.5 117.9531,478.2969 Q118.3125,478.1875 118.7188,477.8281 Q118.9844,477.625 119.125,477.5625 Q119.2656,477.5 119.4375,477.5 Q119.7656,477.5 120,477.7656 Q120.25,478.0156 120.25,478.375 Q120.25,478.7188 119.9063,479.125 Q119.4063,479.7188 118.6094,480.0469 Q117.5625,480.5 116.2813,480.5 Q114.7813,480.5 113.5781,479.9063 Q112.6094,479.4375 111.9219,478.4219 Q111.25,477.4063 111.25,476.2031 L111.25,475.1094 Q111.25,473.8594 111.8438,472.7656 Q112.4531,471.6719 113.5,471.0938 Q114.5625,470.5 115.75,470.5 Q116.4688,470.5 117.0938,470.75 Q117.7188,471 118.25,471.5 Z " fill="#000000"/><text fill="#000000" font-family="sans-serif" font-size="14" lengthAdjust="spacing" textLength="73" x="136.75" y="480.7285">FrameStats</text><line style="stroke:#181818;stroke-width:0.5;" x1="23" x2="291" y1="491" y2="491"/><rect fill="none" height="6" style="stroke:#C82930;stroke-width:1.0;" width="6" x="30" y="499"/><text fill="#000000" font-family="sans-serif" font-size="14" lengthAdjust="spacing" textLength="105" x="42" y="509.5332">long frameCount</text><rect fill="none" height="6" style="stroke:#C82930;stroke-width:1.0;" width="6" x="30" y="516.6094"/><text fill="#000000" font-family="sans-serif" font-size="14" lengthAdjust="spacing" textLength="169" x="42" y="527.1426">double meanFrameInterval</text><rect fill="none" height="6" style="stroke:#C82930;stroke-width:1.0;" width="6" x="30" y="534.2188"/><text fill="#000000" font-family="sans-serif" font-size="14" lengthAdjust="spacing" textLength="181" x="42" y="544.752">ReadOnlyStringWrapper text</text><line style="stroke:#181818;stroke-width:0.5;" x1="23" x2="291" y1="551.8281" y2="551.8281"/><ellipse cx="33" cy="562.8281" fill="#84BE84" rx="3" ry="3" style="stroke:#038048;stroke-width:1.0;"/><text fill="#000000" font-family="sans-serif" font-size="14" lengthAdjust="spacing" textLength="140" x="42" y="570.3613">long getFrameCount()</text><ellipse cx="33" cy="580.4375" fill="#84BE84" rx="3" ry="3" style="stroke:#038048;stroke-width:1.0;"/><text fill="#000000" font-family="sans-serif" font-size="14" lengthAdjust="spacing" textLength="199" x="42" y="587.9707">double getMeanFrameInterval()</text><ellipse cx="33" cy="598.0469" fill="#84BE84" rx="3" ry="3" style="stroke:#038048;stroke-width:1.0;"/><text fill="#000000" font-family="sans-serif" font-size="14" lengthAdjust="spacing" textLength="132" x="42" y="605.5801">void addFrame(long)</text><ellipse cx="33" cy="615.6563" fill="#84BE84" rx="3" ry="3" style="stroke:#038048;stroke-width:1.0;"/><text fill="#000000" font-family="sans-serif" font-size="14" lengthAdjust="spacing" textLength="98" x="42" y="623.1895">String getText()</text><ellipse cx="33" cy="633.2656" fill="#84BE84" rx="3" ry="3" style="stroke:#038048;stroke-width:1.0;"/><text fill="#000000" font-family="sans-serif" font-size="14" lengthAdjust="spacing" textLength="244" x="42" y="640.7988">ReadOnlyStringProperty textProperty()</text><ellipse cx="33" cy="650.875" fill="#84BE84" rx="3" ry="3" style="stroke:#038048;stroke-width:1.0;"/><text fill="#000000" font-family="sans-serif" font-size="14" lengthAdjust="spacing" textLength="100" x="42" y="658.4082">String toString()</text></g><!--MD5=[591f6b9f911fedc8644b3efc1cca87dd]
class moteurJeu.DessinJeu--><g id="elem_moteurJeu.DessinJeu"><rect codeLine="30" fill="#F1F1F1" height="65.6094" id="moteurJeu.DessinJeu" rx="2.5" ry="2.5" style="stroke:#181818;stroke-width:0.5;" width="216" x="327" y="529"/><ellipse cx="397.75" cy="545" fill="#B4A7E5" rx="11" ry="11" style="stroke:#181818;stroke-width:1.0;"/><path d="M398.75,542 L398.75,548 L400.75,548 L401.2344,548 L401.75,548.625 L401.75,549 L401.75,549.375 L401.2344,550 L400.75,550 L394.75,550 L394.2656,550 L393.75,549.375 L393.75,549 L393.75,548.625 L394.2656,548 L394.75,548 L396.75,548 L396.75,542 L394.75,542 L394.2656,542 L393.75,541.375 L393.75,541 L393.75,540.625 L394.2656,540 L394.75,540 L400.75,540 L401.2344,540 L401.75,540.625 L401.75,541 L401.75,541.375 L401.2344,542 L400.75,542 L398.75,542 Z " fill="#000000"/><text fill="#000000" font-family="sans-serif" font-size="14" font-style="italic" lengthAdjust="spacing" textLength="66" x="418.25" y="550.7285">DessinJeu</text><line style="stroke:#181818;stroke-width:0.5;" x1="328" x2="542" y1="561" y2="561"/><line style="stroke:#181818;stroke-width:0.5;" x1="328" x2="542" y1="569" y2="569"/><polygon fill="#4177AF" points="338,576,334,582,342,582" style="stroke:#1963A0;stroke-width:1.0;"/><text fill="#000000" font-family="sans-serif" font-size="14" lengthAdjust="spacing" textLength="190" x="347" y="587.5332">void dessinerJeu(Jeu,Canvas)</text></g><!--MD5=[0566a5659c6ce825b2201c810d2b61a7]
class moteurJeu.Jeu--><g id="elem_moteurJeu.Jeu"><rect codeLine="46" fill="#F1F1F1" height="100.8281" id="moteurJeu.Jeu" rx="2.5" ry="2.5" style="stroke:#181818;stroke-width:0.5;" width="201" x="578.5" y="511.5"/><ellipse cx="663.25" cy="527.5" fill="#B4A7E5" rx="11" ry="11" style="stroke:#181818;stroke-width:1.0;"/><path d="M664.25,524.5 L664.25,530.5 L666.25,530.5 L666.7344,530.5 L667.25,531.125 L667.25,531.5 L667.25,531.875 L666.7344,532.5 L666.25,532.5 L660.25,532.5 L659.7656,532.5 L659.25,531.875 L659.25,531.5 L659.25,531.125 L659.7656,530.5 L660.25,530.5 L662.25,530.5 L662.25,524.5 L660.25,524.5 L659.7656,524.5 L659.25,523.875 L659.25,523.5 L659.25,523.125 L659.7656,522.5 L660.25,522.5 L666.25,522.5 L666.7344,522.5 L667.25,523.125 L667.25,523.5 L667.25,523.875 L666.7344,524.5 L666.25,524.5 L664.25,524.5 Z " fill="#000000"/><text fill="#000000" font-family="sans-serif" font-size="14" font-style="italic" lengthAdjust="spacing" textLength="23" x="683.75" y="533.2285">Jeu</text><line style="stroke:#181818;stroke-width:0.5;" x1="579.5" x2="778.5" y1="543.5" y2="543.5"/><line style="stroke:#181818;stroke-width:0.5;" x1="579.5" x2="778.5" y1="551.5" y2="551.5"/><polygon fill="#4177AF" points="589.5,558.5,585.5,564.5,593.5,564.5" style="stroke:#1963A0;stroke-width:1.0;"/><text fill="#000000" font-family="sans-serif" font-size="14" lengthAdjust="spacing" textLength="175" x="598.5" y="570.0332">void update(double,Clavier)</text><polygon fill="#4177AF" points="589.5,576.1094,585.5,582.1094,593.5,582.1094" style="stroke:#1963A0;stroke-width:1.0;"/><text fill="#000000" font-family="sans-serif" font-size="14" lengthAdjust="spacing" textLength="58" x="598.5" y="587.6426">void init()</text><polygon fill="#4177AF" points="589.5,593.7188,585.5,599.7188,593.5,599.7188" style="stroke:#1963A0;stroke-width:1.0;"/><text fill="#000000" font-family="sans-serif" font-size="14" lengthAdjust="spacing" textLength="113" x="598.5" y="605.252">boolean etreFini()</text></g><!--MD5=[f85c18983d1f3d9e1cdc2a6fcabcc18e]
class moteurJeu.Clavier--><g id="elem_moteurJeu.Clavier"><rect codeLine="59" fill="#F1F1F1" height="100.8281" id="moteurJeu.Clavier" rx="2.5" ry="2.5" style="stroke:#181818;stroke-width:0.5;" width="226" x="815" y="511.5"/><ellipse cx="901.75" cy="527.5" fill="#ADD1B2" rx="11" ry="11" style="stroke:#181818;stroke-width:1.0;"/><path d="M903.75,524 Q903.9531,523.5 904.1875,523.25 Q904.4219,523 904.6875,523 Q905.1563,523 905.4531,523.2813 Q905.75,523.5625 905.75,524.2188 L905.75,525.7813 Q905.75,526.4375 905.4688,526.7188 Q905.1875,527 904.75,527 Q904.3594,527 904.1094,526.8281 Q903.8594,526.6563 903.75,526.2031 Q903.7031,525.8906 903.5313,525.7188 Q903.2188,525.3906 902.6563,525.2031 Q902.0938,525 901.5313,525 Q900.8281,525 900.2344,525.2813 Q899.6563,525.5625 899.2031,526.1875 Q898.75,526.8125 898.75,527.6719 L898.75,528.5938 Q898.75,529.625 899.5938,530.3125 Q900.4375,531 901.9375,531 Q902.8281,531 903.4531,530.7969 Q903.8125,530.6875 904.2188,530.3281 Q904.4844,530.125 904.625,530.0625 Q904.7656,530 904.9375,530 Q905.2656,530 905.5,530.2656 Q905.75,530.5156 905.75,530.875 Q905.75,531.2188 905.4063,531.625 Q904.9063,532.2188 904.1094,532.5469 Q903.0625,533 901.7813,533 Q900.2813,533 899.0781,532.4063 Q898.1094,531.9375 897.4219,530.9219 Q896.75,529.9063 896.75,528.7031 L896.75,527.6094 Q896.75,526.3594 897.3438,525.2656 Q897.9531,524.1719 899,523.5938 Q900.0625,523 901.25,523 Q901.9688,523 902.5938,523.25 Q903.2188,523.5 903.75,524 Z " fill="#000000"/><text fill="#000000" font-family="sans-serif" font-size="14" lengthAdjust="spacing" textLength="44" x="922.25" y="533.2285">Clavier</text><line style="stroke:#181818;stroke-width:0.5;" x1="816" x2="1040" y1="543.5" y2="543.5"/><ellipse cx="826" cy="554.5" fill="none" rx="3" ry="3" style="stroke:#038048;stroke-width:1.0;"/><text fill="#000000" font-family="sans-serif" font-size="14" lengthAdjust="spacing" textLength="83" x="835" y="562.0332">boolean haut</text><line style="stroke:#181818;stroke-width:0.5;" x1="816" x2="1040" y1="569.1094" y2="569.1094"/><ellipse cx="826" cy="580.1094" fill="#84BE84" rx="3" ry="3" style="stroke:#038048;stroke-width:1.0;"/><text fill="#000000" font-family="sans-serif" font-size="14" lengthAdjust="spacing" textLength="200" x="835" y="587.6426">void appuyerTouche(KeyEvent)</text><ellipse cx="826" cy="597.7188" fill="#84BE84" rx="3" ry="3" style="stroke:#038048;stroke-width:1.0;"/><text fill="#000000" font-family="sans-serif" font-size="14" lengthAdjust="spacing" textLength="200" x="835" y="605.252">void relacherTouche(KeyEvent)</text></g><!--MD5=[59ac0dae74f78a62dbac4bde46dcb155]
class moteurJeu.MoteurJeu--><g id="elem_moteurJeu.MoteurJeu"><rect codeLine="64" fill="#F1F1F1" height="206.4844" id="moteurJeu.MoteurJeu" rx="2.5" ry="2.5" style="stroke:#181818;stroke-width:0.5;" width="209" x="452.5" y="175"/><ellipse cx="519.75" cy="191" fill="#ADD1B2" rx="11" ry="11" style="stroke:#181818;stroke-width:1.0;"/><path d="M521.75,187.5 Q521.9531,187 522.1875,186.75 Q522.4219,186.5 522.6875,186.5 Q523.1563,186.5 523.4531,186.7813 Q523.75,187.0625 523.75,187.7188 L523.75,189.2813 Q523.75,189.9375 523.4688,190.2188 Q523.1875,190.5 522.75,190.5 Q522.3594,190.5 522.1094,190.3281 Q521.8594,190.1563 521.75,189.7031 Q521.7031,189.3906 521.5313,189.2188 Q521.2188,188.8906 520.6563,188.7031 Q520.0938,188.5 519.5313,188.5 Q518.8281,188.5 518.2344,188.7813 Q517.6563,189.0625 517.2031,189.6875 Q516.75,190.3125 516.75,191.1719 L516.75,192.0938 Q516.75,193.125 517.5938,193.8125 Q518.4375,194.5 519.9375,194.5 Q520.8281,194.5 521.4531,194.2969 Q521.8125,194.1875 522.2188,193.8281 Q522.4844,193.625 522.625,193.5625 Q522.7656,193.5 522.9375,193.5 Q523.2656,193.5 523.5,193.7656 Q523.75,194.0156 523.75,194.375 Q523.75,194.7188 523.4063,195.125 Q522.9063,195.7188 522.1094,196.0469 Q521.0625,196.5 519.7813,196.5 Q518.2813,196.5 517.0781,195.9063 Q516.1094,195.4375 515.4219,194.4219 Q514.75,193.4063 514.75,192.2031 L514.75,191.1094 Q514.75,189.8594 515.3438,188.7656 Q515.9531,187.6719 517,187.0938 Q518.0625,186.5 519.25,186.5 Q519.9688,186.5 520.5938,186.75 Q521.2188,187 521.75,187.5 Z " fill="#000000"/><text fill="#000000" font-family="sans-serif" font-size="14" lengthAdjust="spacing" textLength="66" x="540.25" y="196.7285">MoteurJeu</text><line style="stroke:#181818;stroke-width:0.5;" x1="453.5" x2="660.5" y1="207" y2="207"/><rect fill="none" height="6" style="stroke:#C82930;stroke-width:1.0;" width="6" x="460.5" y="215"/><text fill="#000000" font-family="sans-serif" font-size="14" lengthAdjust="spacing" text-decoration="underline" textLength="74" x="472.5" y="225.5332">double FPS</text><rect fill="none" height="6" style="stroke:#C82930;stroke-width:1.0;" width="6" x="460.5" y="232.6094"/><text fill="#000000" font-family="sans-serif" font-size="14" lengthAdjust="spacing" text-decoration="underline" textLength="111" x="472.5" y="243.1426">double dureeFPS</text><rect fill="none" height="6" style="stroke:#C82930;stroke-width:1.0;" width="6" x="460.5" y="250.2188"/><text fill="#000000" font-family="sans-serif" font-size="14" lengthAdjust="spacing" text-decoration="underline" textLength="91" x="472.5" y="260.752">double WIDTH</text><rect fill="none" height="6" style="stroke:#C82930;stroke-width:1.0;" width="6" x="460.5" y="267.8281"/><text fill="#000000" font-family="sans-serif" font-size="14" lengthAdjust="spacing" text-decoration="underline" textLength="97" x="472.5" y="278.3613">double HEIGHT</text><line style="stroke:#181818;stroke-width:0.5;" x1="453.5" x2="660.5" y1="285.4375" y2="285.4375"/><ellipse cx="463.5" cy="296.4375" fill="#84BE84" rx="3" ry="3" style="stroke:#038048;stroke-width:1.0;"/><text fill="#000000" font-family="sans-serif" font-size="14" lengthAdjust="spacing" text-decoration="underline" textLength="173" x="472.5" y="303.9707">void launch(Jeu,DessinJeu)</text><ellipse cx="463.5" cy="314.0469" fill="#84BE84" rx="3" ry="3" style="stroke:#038048;stroke-width:1.0;"/><text fill="#000000" font-family="sans-serif" font-size="14" lengthAdjust="spacing" text-decoration="underline" textLength="101" x="472.5" y="321.5801">void setFPS(int)</text><ellipse cx="463.5" cy="331.6563" fill="#84BE84" rx="3" ry="3" style="stroke:#038048;stroke-width:1.0;"/><text fill="#000000" font-family="sans-serif" font-size="14" lengthAdjust="spacing" text-decoration="underline" textLength="183" x="472.5" y="339.1895">void setTaille(double,double)</text><ellipse cx="463.5" cy="349.2656" fill="#84BE84" rx="3" ry="3" style="stroke:#038048;stroke-width:1.0;"/><text fill="#000000" font-family="sans-serif" font-size="14" lengthAdjust="spacing" textLength="105" x="472.5" y="356.7988">void start(Stage)</text><rect fill="#F24D5C" height="6" style="stroke:#C82930;stroke-width:1.0;" width="6" x="460.5" y="363.875"/><text fill="#000000" font-family="sans-serif" font-size="14" lengthAdjust="spacing" textLength="178" x="472.5" y="374.4082">void startAnimation(Canvas)</text></g><!--MD5=[2bf042a19b7caec9f380341c620cec60]
class gameLaby.laby.Labyrinthe--><g id="elem_gameLaby.laby.Labyrinthe"><rect codeLine="12" fill="#F1F1F1" height="329.75" id="gameLaby.laby.Labyrinthe" rx="2.5" ry="2.5" style="stroke:#181818;stroke-width:0.5;" width="205" x="341.5" y="1143"/><ellipse cx="406.25" cy="1159" fill="#ADD1B2" rx="11" ry="11" style="stroke:#181818;stroke-width:1.0;"/><path d="M408.25,1155.5 Q408.4531,1155 408.6875,1154.75 Q408.9219,1154.5 409.1875,1154.5 Q409.6563,1154.5 409.9531,1154.7813 Q410.25,1155.0625 410.25,1155.7188 L410.25,1157.2813 Q410.25,1157.9375 409.9688,1158.2188 Q409.6875,1158.5 409.25,1158.5 Q408.8594,1158.5 408.6094,1158.3281 Q408.3594,1158.1563 408.25,1157.7031 Q408.2031,1157.3906 408.0313,1157.2188 Q407.7188,1156.8906 407.1563,1156.7031 Q406.5938,1156.5 406.0313,1156.5 Q405.3281,1156.5 404.7344,1156.7813 Q404.1563,1157.0625 403.7031,1157.6875 Q403.25,1158.3125 403.25,1159.1719 L403.25,1160.0938 Q403.25,1161.125 404.0938,1161.8125 Q404.9375,1162.5 406.4375,1162.5 Q407.3281,1162.5 407.9531,1162.2969 Q408.3125,1162.1875 408.7188,1161.8281 Q408.9844,1161.625 409.125,1161.5625 Q409.2656,1161.5 409.4375,1161.5 Q409.7656,1161.5 410,1161.7656 Q410.25,1162.0156 410.25,1162.375 Q410.25,1162.7188 409.9063,1163.125 Q409.4063,1163.7188 408.6094,1164.0469 Q407.5625,1164.5 406.2813,1164.5 Q404.7813,1164.5 403.5781,1163.9063 Q402.6094,1163.4375 401.9219,1162.4219 Q401.25,1161.4063 401.25,1160.2031 L401.25,1159.1094 Q401.25,1157.8594 401.8438,1156.7656 Q402.4531,1155.6719 403.5,1155.0938 Q404.5625,1154.5 405.75,1154.5 Q406.4688,1154.5 407.0938,1154.75 Q407.7188,1155 408.25,1155.5 Z " fill="#000000"/><text fill="#000000" font-family="sans-serif" font-size="14" lengthAdjust="spacing" textLength="67" x="426.75" y="1164.7285">Labyrinthe</text><line style="stroke:#181818;stroke-width:0.5;" x1="342.5" x2="545.5" y1="1175" y2="1175"/><ellipse cx="352.5" cy="1186" fill="none" rx="3" ry="3" style="stroke:#038048;stroke-width:1.0;"/><text fill="#000000" font-family="sans-serif" font-size="14" lengthAdjust="spacing" text-decoration="underline" textLength="62" x="361.5" y="1193.5332">char MUR</text><ellipse cx="352.5" cy="1203.6094" fill="none" rx="3" ry="3" style="stroke:#038048;stroke-width:1.0;"/><text fill="#000000" font-family="sans-serif" font-size="14" lengthAdjust="spacing" text-decoration="underline" textLength="47" x="361.5" y="1211.1426">char PJ</text><ellipse cx="352.5" cy="1221.2188" fill="none" rx="3" ry="3" style="stroke:#038048;stroke-width:1.0;"/><text fill="#000000" font-family="sans-serif" font-size="14" lengthAdjust="spacing" text-decoration="underline" textLength="63" x="361.5" y="1228.752">char VIDE</text><ellipse cx="352.5" cy="1238.8281" fill="none" rx="3" ry="3" style="stroke:#038048;stroke-width:1.0;"/><text fill="#000000" font-family="sans-serif" font-size="14" lengthAdjust="spacing" text-decoration="underline" textLength="77" x="361.5" y="1246.3613">String HAUT</text><ellipse cx="352.5" cy="1256.4375" fill="none" rx="3" ry="3" style="stroke:#038048;stroke-width:1.0;"/><text fill="#000000" font-family="sans-serif" font-size="14" lengthAdjust="spacing" text-decoration="underline" textLength="68" x="361.5" y="1263.9707">String BAS</text><ellipse cx="352.5" cy="1274.0469" fill="none" rx="3" ry="3" style="stroke:#038048;stroke-width:1.0;"/><text fill="#000000" font-family="sans-serif" font-size="14" lengthAdjust="spacing" text-decoration="underline" textLength="98" x="361.5" y="1281.5801">String GAUCHE</text><ellipse cx="352.5" cy="1291.6563" fill="none" rx="3" ry="3" style="stroke:#038048;stroke-width:1.0;"/><text fill="#000000" font-family="sans-serif" font-size="14" lengthAdjust="spacing" text-decoration="underline" textLength="93" x="361.5" y="1299.1895">String DROITE</text><ellipse cx="352.5" cy="1309.2656" fill="none" rx="3" ry="3" style="stroke:#038048;stroke-width:1.0;"/><text fill="#000000" font-family="sans-serif" font-size="14" lengthAdjust="spacing" textLength="52" x="361.5" y="1316.7988">Perso pj</text><ellipse cx="352.5" cy="1326.875" fill="none" rx="3" ry="3" style="stroke:#038048;stroke-width:1.0;"/><text fill="#000000" font-family="sans-serif" font-size="14" lengthAdjust="spacing" textLength="102" x="361.5" y="1334.4082">boolean[][] murs</text><line style="stroke:#181818;stroke-width:0.5;" x1="342.5" x2="545.5" y1="1341.4844" y2="1341.4844"/><ellipse cx="352.5" cy="1352.4844" fill="#84BE84" rx="3" ry="3" style="stroke:#038048;stroke-width:1.0;"/><text fill="#000000" font-family="sans-serif" font-size="14" lengthAdjust="spacing" textLength="177" x="361.5" y="1360.0176">«Create» Labyrinthe(String)</text><polygon fill="#4177AF" points="352.5,1366.0938,348.5,1372.0938,356.5,1372.0938" style="stroke:#1963A0;stroke-width:1.0;"/><text fill="#000000" font-family="sans-serif" font-size="14" lengthAdjust="spacing" text-decoration="underline" textLength="179" x="361.5" y="1377.627">int[] getSuivant(int,int,String)</text><ellipse cx="352.5" cy="1387.7031" fill="#84BE84" rx="3" ry="3" style="stroke:#038048;stroke-width:1.0;"/><text fill="#000000" font-family="sans-serif" font-size="14" lengthAdjust="spacing" textLength="169" x="361.5" y="1395.2363">void deplacerPerso(String)</text><ellipse cx="352.5" cy="1405.3125" fill="#84BE84" rx="3" ry="3" style="stroke:#038048;stroke-width:1.0;"/><text fill="#000000" font-family="sans-serif" font-size="14" lengthAdjust="spacing" textLength="113" x="361.5" y="1412.8457">boolean etreFini()</text><ellipse cx="352.5" cy="1422.9219" fill="#84BE84" rx="3" ry="3" style="stroke:#038048;stroke-width:1.0;"/><text fill="#000000" font-family="sans-serif" font-size="14" lengthAdjust="spacing" textLength="102" x="361.5" y="1430.4551">int getLengthY()</text><ellipse cx="352.5" cy="1440.5313" fill="#84BE84" rx="3" ry="3" style="stroke:#038048;stroke-width:1.0;"/><text fill="#000000" font-family="sans-serif" font-size="14" lengthAdjust="spacing" textLength="93" x="361.5" y="1448.0645">int getLength()</text><ellipse cx="352.5" cy="1458.1406" fill="#84BE84" rx="3" ry="3" style="stroke:#038048;stroke-width:1.0;"/><text fill="#000000" font-family="sans-serif" font-size="14" lengthAdjust="spacing" textLength="143" x="361.5" y="1465.6738">boolean getMur(int,int)</text></g><!--MD5=[5c1058acac23f901acb52fa6a087d6f8]
class gameLaby.laby.LabyDessin--><g id="elem_gameLaby.laby.LabyDessin"><rect codeLine="33" fill="#F1F1F1" height="83.2188" id="gameLaby.laby.LabyDessin" rx="2.5" ry="2.5" style="stroke:#181818;stroke-width:0.5;" width="216" x="376" y="750"/><ellipse cx="442.75" cy="766" fill="#ADD1B2" rx="11" ry="11" style="stroke:#181818;stroke-width:1.0;"/><path d="M444.75,762.5 Q444.9531,762 445.1875,761.75 Q445.4219,761.5 445.6875,761.5 Q446.1563,761.5 446.4531,761.7813 Q446.75,762.0625 446.75,762.7188 L446.75,764.2813 Q446.75,764.9375 446.4688,765.2188 Q446.1875,765.5 445.75,765.5 Q445.3594,765.5 445.1094,765.3281 Q444.8594,765.1563 444.75,764.7031 Q444.7031,764.3906 444.5313,764.2188 Q444.2188,763.8906 443.6563,763.7031 Q443.0938,763.5 442.5313,763.5 Q441.8281,763.5 441.2344,763.7813 Q440.6563,764.0625 440.2031,764.6875 Q439.75,765.3125 439.75,766.1719 L439.75,767.0938 Q439.75,768.125 440.5938,768.8125 Q441.4375,769.5 442.9375,769.5 Q443.8281,769.5 444.4531,769.2969 Q444.8125,769.1875 445.2188,768.8281 Q445.4844,768.625 445.625,768.5625 Q445.7656,768.5 445.9375,768.5 Q446.2656,768.5 446.5,768.7656 Q446.75,769.0156 446.75,769.375 Q446.75,769.7188 446.4063,770.125 Q445.9063,770.7188 445.1094,771.0469 Q444.0625,771.5 442.7813,771.5 Q441.2813,771.5 440.0781,770.9063 Q439.1094,770.4375 438.4219,769.4219 Q437.75,768.4063 437.75,767.2031 L437.75,766.1094 Q437.75,764.8594 438.3438,763.7656 Q438.9531,762.6719 440,762.0938 Q441.0625,761.5 442.25,761.5 Q442.9688,761.5 443.5938,761.75 Q444.2188,762 444.75,762.5 Z " fill="#000000"/><text fill="#000000" font-family="sans-serif" font-size="14" lengthAdjust="spacing" textLength="74" x="463.25" y="771.7285">LabyDessin</text><line style="stroke:#181818;stroke-width:0.5;" x1="377" x2="591" y1="782" y2="782"/><line style="stroke:#181818;stroke-width:0.5;" x1="377" x2="591" y1="790" y2="790"/><polygon fill="#4177AF" points="387,797,383,803,391,803" style="stroke:#1963A0;stroke-width:1.0;"/><text fill="#000000" font-family="sans-serif" font-size="14" lengthAdjust="spacing" textLength="127" x="396" y="808.5332">char getChar(int,int)</text><ellipse cx="387" cy="818.6094" fill="#84BE84" rx="3" ry="3" style="stroke:#038048;stroke-width:1.0;"/><text fill="#000000" font-family="sans-serif" font-size="14" lengthAdjust="spacing" textLength="190" x="396" y="826.1426">void dessinerJeu(Jeu,Canvas)</text></g><!--MD5=[7518963d21009f721e2589a0224588fc]
class gameLaby.laby.LabyJeu--><g id="elem_gameLaby.laby.LabyJeu"><rect codeLine="38" fill="#F1F1F1" height="153.6563" id="gameLaby.laby.LabyJeu" rx="2.5" ry="2.5" style="stroke:#181818;stroke-width:0.5;" width="201" x="524.5" y="911"/><ellipse cx="594.25" cy="927" fill="#ADD1B2" rx="11" ry="11" style="stroke:#181818;stroke-width:1.0;"/><path d="M596.25,923.5 Q596.4531,923 596.6875,922.75 Q596.9219,922.5 597.1875,922.5 Q597.6563,922.5 597.9531,922.7813 Q598.25,923.0625 598.25,923.7188 L598.25,925.2813 Q598.25,925.9375 597.9688,926.2188 Q597.6875,926.5 597.25,926.5 Q596.8594,926.5 596.6094,926.3281 Q596.3594,926.1563 596.25,925.7031 Q596.2031,925.3906 596.0313,925.2188 Q595.7188,924.8906 595.1563,924.7031 Q594.5938,924.5 594.0313,924.5 Q593.3281,924.5 592.7344,924.7813 Q592.1563,925.0625 591.7031,925.6875 Q591.25,926.3125 591.25,927.1719 L591.25,928.0938 Q591.25,929.125 592.0938,929.8125 Q592.9375,930.5 594.4375,930.5 Q595.3281,930.5 595.9531,930.2969 Q596.3125,930.1875 596.7188,929.8281 Q596.9844,929.625 597.125,929.5625 Q597.2656,929.5 597.4375,929.5 Q597.7656,929.5 598,929.7656 Q598.25,930.0156 598.25,930.375 Q598.25,930.7188 597.9063,931.125 Q597.4063,931.7188 596.6094,932.0469 Q595.5625,932.5 594.2813,932.5 Q592.7813,932.5 591.5781,931.9063 Q590.6094,931.4375 589.9219,930.4219 Q589.25,929.4063 589.25,928.2031 L589.25,927.1094 Q589.25,925.8594 589.8438,924.7656 Q590.4531,923.6719 591.5,923.0938 Q592.5625,922.5 593.75,922.5 Q594.4688,922.5 595.0938,922.75 Q595.7188,923 596.25,923.5 Z " fill="#000000"/><text fill="#000000" font-family="sans-serif" font-size="14" lengthAdjust="spacing" textLength="53" x="614.75" y="932.7285">LabyJeu</text><line style="stroke:#181818;stroke-width:0.5;" x1="525.5" x2="724.5" y1="943" y2="943"/><line style="stroke:#181818;stroke-width:0.5;" x1="525.5" x2="724.5" y1="951" y2="951"/><ellipse cx="535.5" cy="962" fill="#84BE84" rx="3" ry="3" style="stroke:#038048;stroke-width:1.0;"/><text fill="#000000" font-family="sans-serif" font-size="14" lengthAdjust="spacing" textLength="126" x="544.5" y="969.5332">«Create» LabyJeu()</text><ellipse cx="535.5" cy="979.6094" fill="#84BE84" rx="3" ry="3" style="stroke:#038048;stroke-width:1.0;"/><text fill="#000000" font-family="sans-serif" font-size="14" lengthAdjust="spacing" textLength="175" x="544.5" y="987.1426">void update(double,Clavier)</text><ellipse cx="535.5" cy="997.2188" fill="#84BE84" rx="3" ry="3" style="stroke:#038048;stroke-width:1.0;"/><text fill="#000000" font-family="sans-serif" font-size="14" lengthAdjust="spacing" textLength="58" x="544.5" y="1004.752">void init()</text><ellipse cx="535.5" cy="1014.8281" fill="#84BE84" rx="3" ry="3" style="stroke:#038048;stroke-width:1.0;"/><text fill="#000000" font-family="sans-serif" font-size="14" lengthAdjust="spacing" textLength="113" x="544.5" y="1022.3613">boolean etreFini()</text><ellipse cx="535.5" cy="1032.4375" fill="#84BE84" rx="3" ry="3" style="stroke:#038048;stroke-width:1.0;"/><text fill="#000000" font-family="sans-serif" font-size="14" lengthAdjust="spacing" textLength="132" x="544.5" y="1039.9707">Labyrinthe getLaby()</text><ellipse cx="535.5" cy="1050.0469" fill="#84BE84" rx="3" ry="3" style="stroke:#038048;stroke-width:1.0;"/><text fill="#000000" font-family="sans-serif" font-size="14" lengthAdjust="spacing" textLength="108" x="544.5" y="1057.5801">Perso getPerso()</text></g><!--MD5=[b660eaee71b19604176468e288e616a0]
class gameLaby.laby.Perso--><g id="elem_gameLaby.laby.Perso"><rect codeLine="52" fill="#F1F1F1" height="136.0469" id="gameLaby.laby.Perso" rx="2.5" ry="2.5" style="stroke:#181818;stroke-width:0.5;" width="199" x="581.5" y="1240"/><ellipse cx="658.25" cy="1256" fill="#ADD1B2" rx="11" ry="11" style="stroke:#181818;stroke-width:1.0;"/><path d="M660.25,1252.5 Q660.4531,1252 660.6875,1251.75 Q660.9219,1251.5 661.1875,1251.5 Q661.6563,1251.5 661.9531,1251.7813 Q662.25,1252.0625 662.25,1252.7188 L662.25,1254.2813 Q662.25,1254.9375 661.9688,1255.2188 Q661.6875,1255.5 661.25,1255.5 Q660.8594,1255.5 660.6094,1255.3281 Q660.3594,1255.1563 660.25,1254.7031 Q660.2031,1254.3906 660.0313,1254.2188 Q659.7188,1253.8906 659.1563,1253.7031 Q658.5938,1253.5 658.0313,1253.5 Q657.3281,1253.5 656.7344,1253.7813 Q656.1563,1254.0625 655.7031,1254.6875 Q655.25,1255.3125 655.25,1256.1719 L655.25,1257.0938 Q655.25,1258.125 656.0938,1258.8125 Q656.9375,1259.5 658.4375,1259.5 Q659.3281,1259.5 659.9531,1259.2969 Q660.3125,1259.1875 660.7188,1258.8281 Q660.9844,1258.625 661.125,1258.5625 Q661.2656,1258.5 661.4375,1258.5 Q661.7656,1258.5 662,1258.7656 Q662.25,1259.0156 662.25,1259.375 Q662.25,1259.7188 661.9063,1260.125 Q661.4063,1260.7188 660.6094,1261.0469 Q659.5625,1261.5 658.2813,1261.5 Q656.7813,1261.5 655.5781,1260.9063 Q654.6094,1260.4375 653.9219,1259.4219 Q653.25,1258.4063 653.25,1257.2031 L653.25,1256.1094 Q653.25,1254.8594 653.8438,1253.7656 Q654.4531,1252.6719 655.5,1252.0938 Q656.5625,1251.5 657.75,1251.5 Q658.4688,1251.5 659.0938,1251.75 Q659.7188,1252 660.25,1252.5 Z " fill="#000000"/><text fill="#000000" font-family="sans-serif" font-size="14" lengthAdjust="spacing" textLength="37" x="678.75" y="1261.7285">Perso</text><line style="stroke:#181818;stroke-width:0.5;" x1="582.5" x2="779.5" y1="1272" y2="1272"/><polygon fill="none" points="592.5,1279,588.5,1285,596.5,1285" style="stroke:#1963A0;stroke-width:1.0;"/><text fill="#000000" font-family="sans-serif" font-size="14" lengthAdjust="spacing" textLength="25" x="601.5" y="1290.5332">int x</text><line style="stroke:#181818;stroke-width:0.5;" x1="582.5" x2="779.5" y1="1297.6094" y2="1297.6094"/><ellipse cx="592.5" cy="1308.6094" fill="#84BE84" rx="3" ry="3" style="stroke:#038048;stroke-width:1.0;"/><text fill="#000000" font-family="sans-serif" font-size="14" lengthAdjust="spacing" textLength="144" x="601.5" y="1316.1426">«Create» Perso(int,int)</text><ellipse cx="592.5" cy="1326.2188" fill="#84BE84" rx="3" ry="3" style="stroke:#038048;stroke-width:1.0;"/><text fill="#000000" font-family="sans-serif" font-size="14" lengthAdjust="spacing" textLength="173" x="601.5" y="1333.752">boolean etrePresent(int,int)</text><ellipse cx="592.5" cy="1343.8281" fill="#84BE84" rx="3" ry="3" style="stroke:#038048;stroke-width:1.0;"/><text fill="#000000" font-family="sans-serif" font-size="14" lengthAdjust="spacing" textLength="57" x="601.5" y="1351.3613">int getX()</text><ellipse cx="592.5" cy="1361.4375" fill="#84BE84" rx="3" ry="3" style="stroke:#038048;stroke-width:1.0;"/><text fill="#000000" font-family="sans-serif" font-size="14" lengthAdjust="spacing" textLength="58" x="601.5" y="1368.9707">int getY()</text></g><!--MD5=[e3612552781b2b3849880f2b7cc3064d]
class javafx.application.Application--><g id="elem_javafx.application.Application"><rect fill="#F1F1F1" height="48" id="javafx.application.Application" rx="2.5" ry="2.5" style="stroke:#181818;stroke-width:0.5;" width="101" x="506.5" y="42"/><ellipse cx="521.5" cy="58" fill="#ADD1B2" rx="11" ry="11" style="stroke:#181818;stroke-width:1.0;"/><path d="M523.5,54.5 Q523.7031,54 523.9375,53.75 Q524.1719,53.5 524.4375,53.5 Q524.9063,53.5 525.2031,53.7813 Q525.5,54.0625 525.5,54.7188 L525.5,56.2813 Q525.5,56.9375 525.2188,57.2188 Q524.9375,57.5 524.5,57.5 Q524.1094,57.5 523.8594,57.3281 Q523.6094,57.1563 523.5,56.7031 Q523.4531,56.3906 523.2813,56.2188 Q522.9688,55.8906 522.4063,55.7031 Q521.8438,55.5 521.2813,55.5 Q520.5781,55.5 519.9844,55.7813 Q519.4063,56.0625 518.9531,56.6875 Q518.5,57.3125 518.5,58.1719 L518.5,59.0938 Q518.5,60.125 519.3438,60.8125 Q520.1875,61.5 521.6875,61.5 Q522.5781,61.5 523.2031,61.2969 Q523.5625,61.1875 523.9688,60.8281 Q524.2344,60.625 524.375,60.5625 Q524.5156,60.5 524.6875,60.5 Q525.0156,60.5 525.25,60.7656 Q525.5,61.0156 525.5,61.375 Q525.5,61.7188 525.1563,62.125 Q524.6563,62.7188 523.8594,63.0469 Q522.8125,63.5 521.5313,63.5 Q520.0313,63.5 518.8281,62.9063 Q517.8594,62.4375 517.1719,61.4219 Q516.5,60.4063 516.5,59.2031 L516.5,58.1094 Q516.5,56.8594 517.0938,55.7656 Q517.7031,54.6719 518.75,54.0938 Q519.8125,53.5 521,53.5 Q521.7188,53.5 522.3438,53.75 Q522.9688,54 523.5,54.5 Z " fill="#000000"/><text fill="#000000" font-family="sans-serif" font-size="14" lengthAdjust="spacing" textLength="69" x="535.5" y="63.7285">Application</text><line style="stroke:#181818;stroke-width:0.5;" x1="507.5" x2="606.5" y1="74" y2="74"/><line style="stroke:#181818;stroke-width:0.5;" x1="507.5" x2="606.5" y1="82" y2="82"/></g><!--MD5=[98012c4b17afe8b59e54ed1a6adde1dc]
reverse link moteurJeu.DessinJeu to gameLaby.laby.LabyDessin--><g id="link_moteurJeu.DessinJeu_gameLaby.laby.LabyDessin"><path codeLine="77" d="M446.18,614.92 C454.99,655.81 467.09,712.01 475.21,749.71 " fill="none" id="moteurJeu.DessinJeu-backto-gameLaby.laby.LabyDessin" style="stroke:#181818;stroke-width:1.0;stroke-dasharray:7.0,7.0;"/><polygon fill="none" points="439.28,616.14,441.92,595.11,452.97,613.19,439.28,616.14" style="stroke:#181818;stroke-width:1.0;"/></g><!--MD5=[55b1fd11eabe894e48bdf5bcb9e93328]
reverse link moteurJeu.Jeu to gameLaby.laby.LabyJeu--><g id="link_moteurJeu.Jeu_gameLaby.laby.LabyJeu"><path codeLine="78" d="M670.06,633.2 C660.3,709.8 644.74,831.98 634.7,910.85 " fill="none" id="moteurJeu.Jeu-backto-gameLaby.laby.LabyJeu" style="stroke:#181818;stroke-width:1.0;stroke-dasharray:7.0,7.0;"/><polygon fill="none" points="663.18,631.84,672.65,612.89,677.06,633.61,663.18,631.84" style="stroke:#181818;stroke-width:1.0;"/></g><!--MD5=[ecb6dee987b5ca053c24350e59fc57b0]
reverse link javafx.application.Application to moteurJeu.MoteurJeu--><g id="link_javafx.application.Application_moteurJeu.MoteurJeu"><path codeLine="79" d="M557,110.56 C557,129.35 557,152.19 557,174.85 " fill="none" id="javafx.application.Application-backto-moteurJeu.MoteurJeu" style="stroke:#181818;stroke-width:1.0;"/><polygon fill="none" points="550,110.28,557,90.28,564,110.28,550,110.28" style="stroke:#181818;stroke-width:1.0;"/></g><!--MD5=[c2c7be634c37acac64fa81d03d030da8]
link moteurJeu.MoteurJeu to moteurJeu.Clavier--><g id="link_moteurJeu.MoteurJeu_moteurJeu.Clavier"><path codeLine="80" d="M661.56,356.78 C703.76,388.34 752.82,425.24 797,459 C817.83,474.92 840.39,492.4 860.82,508.32 " fill="none" id="moteurJeu.MoteurJeu-to-moteurJeu.Clavier" style="stroke:#181818;stroke-width:1.0;"/><polygon fill="#181818" points="864.88,511.48,860.2381,502.7936,860.9355,508.4073,855.3219,509.1048,864.88,511.48" style="stroke:#181818;stroke-width:1.0;"/><rect fill="none" height="6" style="stroke:#C82930;stroke-width:1.0;" width="6" x="754" y="417.6758"/><text fill="#000000" font-family="sans-serif" font-size="13" lengthAdjust="spacing" textLength="46" x="764" y="425.4951">controle</text><text fill="#000000" font-family="sans-serif" font-size="13" lengthAdjust="spacing" textLength="7" x="669.4957" y="359.4681">1</text><text fill="#000000" font-family="sans-serif" font-size="13" lengthAdjust="spacing" textLength="7" x="848.5116" y="500.7825">1</text></g><!--MD5=[c10619b2e8687c28c235c39f4f5a730d]
link moteurJeu.MoteurJeu to moteurJeu.Jeu--><g id="link_moteurJeu.MoteurJeu_moteurJeu.Jeu"><path codeLine="81" d="M601.22,381.21 C619.56,423.6 640.09,471.06 655.45,506.57 " fill="none" id="moteurJeu.MoteurJeu-to-moteurJeu.Jeu" style="stroke:#181818;stroke-width:1.0;"/><polygon fill="#181818" points="657.49,511.28,657.5843,501.4316,655.5032,506.6917,650.2431,504.6105,657.49,511.28" style="stroke:#181818;stroke-width:1.0;"/><rect fill="none" height="6" style="stroke:#C82930;stroke-width:1.0;" width="6" x="624" y="417.6758"/><text fill="#000000" font-family="sans-serif" font-size="13" lengthAdjust="spacing" textLength="69" x="634" y="425.4951">&lt;static&gt; jeu</text><text fill="#000000" font-family="sans-serif" font-size="13" lengthAdjust="spacing" textLength="7" x="597.2104" y="402.8672">1</text><text fill="#000000" font-family="sans-serif" font-size="13" lengthAdjust="spacing" textLength="7" x="646.973" y="500.5544">1</text></g><!--MD5=[41b73a5c9fe56f49f07549ee14f64e07]
link moteurJeu.MoteurJeu to moteurJeu.DessinJeu--><g id="link_moteurJeu.MoteurJeu_moteurJeu.DessinJeu"><path codeLine="82" d="M512.78,381.21 C491.25,430.99 466.68,487.76 451.02,523.97 " fill="none" id="moteurJeu.MoteurJeu-to-moteurJeu.DessinJeu" style="stroke:#181818;stroke-width:1.0;"/><polygon fill="#181818" points="448.97,528.71,456.2169,522.0405,450.9568,524.1217,448.8757,518.8616,448.97,528.71" style="stroke:#181818;stroke-width:1.0;"/><rect fill="none" height="6" style="stroke:#C82930;stroke-width:1.0;" width="6" x="502" y="417.6758"/><text fill="#000000" font-family="sans-serif" font-size="13" lengthAdjust="spacing" textLength="90" x="512" y="425.4951">&lt;static&gt; dessin</text><text fill="#000000" font-family="sans-serif" font-size="13" lengthAdjust="spacing" textLength="7" x="502.2756" y="402.8672">1</text><text fill="#000000" font-family="sans-serif" font-size="13" lengthAdjust="spacing" textLength="7" x="444.0313" y="518.1492">1</text></g><!--MD5=[096986cb861f432d82c02b1d067b9adf]
link moteurJeu.MoteurJeu to moteurJeu.FrameStats--><g id="link_moteurJeu.MoteurJeu_moteurJeu.FrameStats"><path codeLine="83" d="M452.47,349.73 C423.69,369.41 392.55,390.9 364,411 C342.05,426.45 318.92,442.98 296.39,459.21 " fill="none" id="moteurJeu.MoteurJeu-to-moteurJeu.FrameStats" style="stroke:#181818;stroke-width:1.0;"/><polygon fill="#181818" points="292.19,462.23,301.8286,460.2058,296.2441,459.3036,297.1463,453.7191,292.19,462.23" style="stroke:#181818;stroke-width:1.0;"/><rect fill="none" height="6" style="stroke:#C82930;stroke-width:1.0;" width="6" x="367" y="417.6758"/><text fill="#000000" font-family="sans-serif" font-size="13" lengthAdjust="spacing" textLength="106" x="377" y="425.4951">&lt;final&gt; frameStats</text><text fill="#000000" font-family="sans-serif" font-size="13" lengthAdjust="spacing" textLength="7" x="437.5365" y="351.9004">1</text><text fill="#000000" font-family="sans-serif" font-size="13" lengthAdjust="spacing" textLength="7" x="300.208" y="453.4908">1</text></g><!--MD5=[7e058d8952629d41a4b46f64376298cd]
link gameLaby.laby.LabyJeu to gameLaby.laby.Labyrinthe--><g id="link_gameLaby.laby.LabyJeu_gameLaby.laby.Labyrinthe"><path codeLine="84" d="M581.65,1065.17 C568.94,1087.49 554.52,1112.83 539.91,1138.5 " fill="none" id="gameLaby.laby.LabyJeu-to-gameLaby.laby.Labyrinthe" style="stroke:#181818;stroke-width:1.0;"/><polygon fill="#181818" points="537.37,1142.96,545.2979,1137.1163,539.843,1138.6144,538.3449,1133.1595,537.37,1142.96" style="stroke:#181818;stroke-width:1.0;"/><rect fill="none" height="6" style="stroke:#C82930;stroke-width:1.0;" width="6" x="564" y="1101.6758"/><text fill="#000000" font-family="sans-serif" font-size="13" lengthAdjust="spacing" textLength="24" x="574" y="1109.4951">laby</text><text fill="#000000" font-family="sans-serif" font-size="13" lengthAdjust="spacing" textLength="20" x="556.8985" y="1086.2815">0..*</text><text fill="#000000" font-family="sans-serif" font-size="13" lengthAdjust="spacing" textLength="7" x="534.7231" y="1132.0881">1</text></g><!--MD5=[ee013944597a6fbb505dba769c29ea2d]
link gameLaby.laby.LabyJeu to gameLaby.laby.Perso--><g id="link_gameLaby.laby.LabyJeu_gameLaby.laby.Perso"><path codeLine="85" d="M638.41,1065.17 C647.47,1116.6 659.35,1184.07 668.26,1234.67 " fill="none" id="gameLaby.laby.LabyJeu-to-gameLaby.laby.Perso" style="stroke:#181818;stroke-width:1.0;"/><polygon fill="#181818" points="669.17,1239.82,671.5419,1230.261,668.2994,1234.8964,663.6641,1231.6539,669.17,1239.82" style="stroke:#181818;stroke-width:1.0;"/><rect fill="none" height="6" style="stroke:#C82930;stroke-width:1.0;" width="6" x="649" y="1101.6758"/><text fill="#000000" font-family="sans-serif" font-size="13" lengthAdjust="spacing" textLength="32" x="659" y="1109.4951">perso</text><text fill="#000000" font-family="sans-serif" font-size="13" lengthAdjust="spacing" textLength="7" x="632.2926" y="1086.2815">1</text><text fill="#000000" font-family="sans-serif" font-size="13" lengthAdjust="spacing" textLength="7" x="660.4933" y="1228.9996">1</text></g><!--MD5=[9c4edca7cf8de452e63db43e2e328884]
link gameLaby.laby.LabyDessin to gameLaby.laby.LabyJeu--><g id="link_gameLaby.laby.LabyDessin_gameLaby.laby.LabyJeu"><path codeLine="86" d="M513.56,833.27 C529.04,854.63 548.56,881.55 566.91,906.88 " fill="none" id="gameLaby.laby.LabyDessin-to-gameLaby.laby.LabyJeu" style="stroke:#181818;stroke-width:1.0;"/><polygon fill="#181818" points="569.85,910.92,567.8096,901.2848,566.9168,906.8708,561.3309,905.9779,569.85,910.92" style="stroke:#181818;stroke-width:1.0;"/><rect fill="none" height="6" style="stroke:#C82930;stroke-width:1.0;" width="6" x="549" y="869.6758"/><text fill="#000000" font-family="sans-serif" font-size="13" lengthAdjust="spacing" textLength="17" x="559" y="877.4951">lab</text><text fill="#000000" font-family="sans-serif" font-size="13" lengthAdjust="spacing" textLength="7" x="510.7133" y="854.7078">1</text><text fill="#000000" font-family="sans-serif" font-size="13" lengthAdjust="spacing" textLength="7" x="557.0766" y="900.0743">1</text></g><!--MD5=[550737badb685f189be86b9477281e25]
@startuml
class moteurJeu.FrameStats {
- long frameCount
- double meanFrameInterval
- ReadOnlyStringWrapper text
+ long getFrameCount()
+ double getMeanFrameInterval()
+ void addFrame(long)
+ String getText()
+ ReadOnlyStringProperty textProperty()
+ String toString()
}
class gameLaby.laby.Labyrinthe {
+ {static} char MUR
+ {static} char PJ
+ {static} char VIDE
+ {static} String HAUT
+ {static} String BAS
+ {static} String GAUCHE
+ {static} String DROITE
+ Perso pj
+ boolean[][] murs
+ <<Create>> Labyrinthe(String)
~ {static} int[] getSuivant(int,int,String)
+ void deplacerPerso(String)
+ boolean etreFini()
+ int getLengthY()
+ int getLength()
+ boolean getMur(int,int)
}
interface moteurJeu.DessinJeu {
~ void dessinerJeu(Jeu,Canvas)
}
class gameLaby.laby.LabyDessin {
~ char getChar(int,int)
+ void dessinerJeu(Jeu,Canvas)
}

class gameLaby.laby.LabyJeu {
+ <<Create>> LabyJeu()
+ void update(double,Clavier)
+ void init()
+ boolean etreFini()
+ Labyrinthe getLaby()
+ Perso getPerso()
}
interface moteurJeu.Jeu {
~ void update(double,Clavier)
~ void init()
~ boolean etreFini()
}

class gameLaby.laby.Perso {
~ int x
+ <<Create>> Perso(int,int)
+ boolean etrePresent(int,int)
+ int getX()
+ int getY()
}
class moteurJeu.Clavier {
+ boolean haut
+ void appuyerTouche(KeyEvent)
+ void relacherTouche(KeyEvent)
}
class moteurJeu.MoteurJeu {
- {static} double FPS
- {static} double dureeFPS
- {static} double WIDTH
- {static} double HEIGHT
+ {static} void launch(Jeu,DessinJeu)
+ {static} void setFPS(int)
+ {static} void setTaille(double,double)
+ void start(Stage)
- void startAnimation(Canvas)
}


moteurJeu.DessinJeu <|.. gameLaby.laby.LabyDessin
moteurJeu.Jeu <|.. gameLaby.laby.LabyJeu
javafx.application.Application <|- - moteurJeu.MoteurJeu
moteurJeu.MoteurJeu "1" - -> "1" moteurJeu.Clavier : - controle
moteurJeu.MoteurJeu "1" - -> "1" moteurJeu.Jeu : - <static> jeu
moteurJeu.MoteurJeu "1" - -> "1" moteurJeu.DessinJeu : - <static> dessin
moteurJeu.MoteurJeu "1" - -> "1" moteurJeu.FrameStats : - <final> frameStats
gameLaby.laby.LabyJeu "0..*" - -> "1" gameLaby.laby.Labyrinthe : - laby
gameLaby.laby.LabyJeu "1" - -> "1" gameLaby.laby.Perso : - perso
gameLaby.laby.LabyDessin "1" - -> "1" gameLaby.laby.LabyJeu : - lab
@enduml

PlantUML version 1.2022.5(Sat Apr 30 12:55:52 CEST 2022)
(GPL source distribution)
Java Runtime: OpenJDK Runtime Environment
JVM: OpenJDK 64-Bit Server VM
Default Encoding: Cp1252
Language: fr
Country: FR
--></g></svg>