<?xml version="1.0" encoding="UTF-8" standalone="no"?><svg xmlns="http://www.w3.org/2000/svg" xmlns:xlink="http://www.w3.org/1999/xlink" contentStyleType="text/css" height="1560px" preserveAspectRatio="none" style="width:1074px;height:1560px;background:#FFFFFF;" version="1.1" viewBox="0 0 1074 1560" width="1074px" zoomAndPan="magnify"><defs/><g><!--MD5=[697e110f9590970c7c0120cdc1a051d1]
cluster moteurJeu--><g id="cluster_moteurJeu"><path d="M8.5,139 L85.5,139 A3.75,3.75 0 0 1 88,141.5 L95,162.6094 L1064.5,162.6094 A2.5,2.5 0 0 1 1067,165.1094 L1067,742.5 A2.5,2.5 0 0 1 1064.5,745 L8.5,745 A2.5,2.5 0 0 1 6,742.5 L6,141.5 A2.5,2.5 0 0 1 8.5,139 " style="stroke:#000000;stroke-width:1.5;fill:none;"/><line style="stroke:#000000;stroke-width:1.5;fill:none;" x1="6" x2="95" y1="162.6094" y2="162.6094"/><text fill="#000000" font-family="sans-serif" font-size="14" font-weight="bold" lengthAdjust="spacing" textLength="76" x="10" y="155.5332">moteurJeu</text></g><!--MD5=[703d8294f503dec073b603f372d06e18]
cluster gameLaby.laby--><g id="cluster_gameLaby.laby"><path d="M585.5,778 L688.5,778 A3.75,3.75 0 0 1 691,780.5 L698,801.6094 L1052.5,801.6094 A2.5,2.5 0 0 1 1055,804.1094 L1055,1550.5 A2.5,2.5 0 0 1 1052.5,1553 L585.5,1553 A2.5,2.5 0 0 1 583,1550.5 L583,780.5 A2.5,2.5 0 0 1 585.5,778 " style="stroke:#000000;stroke-width:1.5;fill:none;"/><line style="stroke:#000000;stroke-width:1.5;fill:none;" x1="583" x2="698" y1="801.6094" y2="801.6094"/><text fill="#000000" font-family="sans-serif" font-size="14" font-weight="bold" lengthAdjust="spacing" textLength="102" x="587" y="794.5332">gameLaby.laby</text></g><!--MD5=[315bf7c36bcdbdaee5bb7549ab6e8767]
cluster javafx.application--><g id="cluster_javafx.application"><path d="M499.5,6 L623.5,6 A3.75,3.75 0 0 1 626,8.5 L633,29.6094 L633.5,29.6094 A2.5,2.5 0 0 1 636,32.1094 L636,103.5 A2.5,2.5 0 0 1 633.5,106 L499.5,106 A2.5,2.5 0 0 1 497,103.5 L497,8.5 A2.5,2.5 0 0 1 499.5,6 " style="stroke:#000000;stroke-width:1.5;fill:none;"/><line style="stroke:#000000;stroke-width:1.5;fill:none;" x1="497" x2="633" y1="29.6094" y2="29.6094"/><text fill="#000000" font-family="sans-serif" font-size="14" font-weight="bold" lengthAdjust="spacing" textLength="123" x="501" y="22.5332">javafx.application</text></g><!--MD5=[f85c18983d1f3d9e1cdc2a6fcabcc18e]
class moteurJeu.Clavier--><g id="elem_moteurJeu.Clavier"><rect codeLine="7" fill="#FFA500" height="270.0156" id="moteurJeu.Clavier" rx="2.5" ry="2.5" style="stroke:#000000;stroke-width:0.5;" width="235" x="22.5" y="459"/><ellipse cx="105.75" cy="480.3516" fill="#ADD1B2" rx="11" ry="11" style="stroke:#181818;stroke-width:1.0;"/><path d="M107.75,476.8516 Q107.9531,476.3516 108.1875,476.1016 Q108.4219,475.8516 108.6875,475.8516 Q109.1563,475.8516 109.4531,476.1328 Q109.75,476.4141 109.75,477.0703 L109.75,478.6328 Q109.75,479.2891 109.4688,479.5703 Q109.1875,479.8516 108.75,479.8516 Q108.3594,479.8516 108.1094,479.6797 Q107.8594,479.5078 107.75,479.0547 Q107.7031,478.7422 107.5313,478.5703 Q107.2188,478.2422 106.6563,478.0547 Q106.0938,477.8516 105.5313,477.8516 Q104.8281,477.8516 104.2344,478.1328 Q103.6563,478.4141 103.2031,479.0391 Q102.75,479.6641 102.75,480.5234 L102.75,481.4453 Q102.75,482.4766 103.5938,483.1641 Q104.4375,483.8516 105.9375,483.8516 Q106.8281,483.8516 107.4531,483.6484 Q107.8125,483.5391 108.2188,483.1797 Q108.4844,482.9766 108.625,482.9141 Q108.7656,482.8516 108.9375,482.8516 Q109.2656,482.8516 109.5,483.1172 Q109.75,483.3672 109.75,483.7266 Q109.75,484.0703 109.4063,484.4766 Q108.9063,485.0703 108.1094,485.3984 Q107.0625,485.8516 105.7813,485.8516 Q104.2813,485.8516 103.0781,485.2578 Q102.1094,484.7891 101.4219,483.7734 Q100.75,482.7578 100.75,481.5547 L100.75,480.4609 Q100.75,479.2109 101.3438,478.1172 Q101.9531,477.0234 103,476.4453 Q104.0625,475.8516 105.25,475.8516 Q105.9688,475.8516 106.5938,476.1016 Q107.2188,476.3516 107.75,476.8516 Z " fill="#000000"/><text fill="#000000" font-family="sans-serif" font-size="12" font-style="italic" lengthAdjust="spacing" textLength="64" x="124.25" y="476.457">«Nouveau»</text><text fill="#000000" font-family="sans-serif" font-size="14" lengthAdjust="spacing" textLength="44" x="134.25" y="493.627">Clavier</text><line style="stroke:#000000;stroke-width:0.5;" x1="23.5" x2="256.5" y1="501.7031" y2="501.7031"/><ellipse cx="33.5" cy="512.7031" fill="none" rx="3" ry="3" style="stroke:#038048;stroke-width:1.0;"/><text fill="#000000" font-family="sans-serif" font-size="14" lengthAdjust="spacing" textLength="95" x="42.5" y="520.2363">haut  : boolean</text><ellipse cx="33.5" cy="530.3125" fill="none" rx="3" ry="3" style="stroke:#038048;stroke-width:1.0;"/><text fill="#000000" font-family="sans-serif" font-size="14" lengthAdjust="spacing" textLength="86" x="42.5" y="537.8457">bas : boolean</text><ellipse cx="33.5" cy="547.9219" fill="none" rx="3" ry="3" style="stroke:#038048;stroke-width:1.0;"/><text fill="#000000" font-family="sans-serif" font-size="14" lengthAdjust="spacing" textLength="110" x="42.5" y="555.4551">gauche : boolean</text><ellipse cx="33.5" cy="565.5313" fill="none" rx="3" ry="3" style="stroke:#038048;stroke-width:1.0;"/><text fill="#000000" font-family="sans-serif" font-size="14" lengthAdjust="spacing" textLength="91" x="42.5" y="573.0645">droit : boolean</text><text fill="#000000" font-family="sans-serif" font-size="14" lengthAdjust="spacing" textLength="4" x="42.5" y="590.6738"> </text><rect fill="none" height="6" style="stroke:#C82930;stroke-width:1.0;" width="6" x="30.5" y="597.75"/><text fill="#000000" font-family="sans-serif" font-size="14" lengthAdjust="spacing" textLength="142" x="42.5" y="608.2832">toucheHaut : KeyCode</text><rect fill="none" height="6" style="stroke:#C82930;stroke-width:1.0;" width="6" x="30.5" y="615.3594"/><text fill="#000000" font-family="sans-serif" font-size="14" lengthAdjust="spacing" textLength="137" x="42.5" y="625.8926">toucheBas : KeyCode</text><rect fill="none" height="6" style="stroke:#C82930;stroke-width:1.0;" width="6" x="30.5" y="632.9688"/><text fill="#000000" font-family="sans-serif" font-size="14" lengthAdjust="spacing" textLength="163" x="42.5" y="643.502">toucheGauche : KeyCode</text><rect fill="none" height="6" style="stroke:#C82930;stroke-width:1.0;" width="6" x="30.5" y="650.5781"/><text fill="#000000" font-family="sans-serif" font-size="14" lengthAdjust="spacing" textLength="151" x="42.5" y="661.1113">toucheDroite : KeyCode</text><line style="stroke:#000000;stroke-width:0.5;" x1="23.5" x2="256.5" y1="668.1875" y2="668.1875"/><ellipse cx="33.5" cy="679.1875" fill="#84BE84" rx="3" ry="3" style="stroke:#038048;stroke-width:1.0;"/><text fill="#000000" font-family="sans-serif" font-size="14" lengthAdjust="spacing" textLength="209" x="42.5" y="686.7207">appuyerTouche(KeyEvent event)</text><ellipse cx="33.5" cy="696.7969" fill="#84BE84" rx="3" ry="3" style="stroke:#038048;stroke-width:1.0;"/><text fill="#000000" font-family="sans-serif" font-size="14" lengthAdjust="spacing" textLength="209" x="42.5" y="704.3301">relacherTouche(KeyEvent event)</text><ellipse cx="33.5" cy="714.4063" fill="#84BE84" rx="3" ry="3" style="stroke:#038048;stroke-width:1.0;"/><text fill="#000000" font-family="sans-serif" font-size="14" lengthAdjust="spacing" textLength="129" x="42.5" y="721.9395">configurerTouches()</text></g><!--MD5=[cce898caa4d5f78016fa5c4b914660c0]
class moteurJeu.FrameStats--><g id="elem_moteurJeu.FrameStats"><rect codeLine="24" fill="#F1F1F1" height="206.4844" id="moteurJeu.FrameStats" rx="2.5" ry="2.5" style="stroke:#181818;stroke-width:0.5;" width="270" x="293" y="491"/><ellipse cx="387.25" cy="507" fill="#ADD1B2" rx="11" ry="11" style="stroke:#181818;stroke-width:1.0;"/><path d="M389.25,503.5 Q389.4531,503 389.6875,502.75 Q389.9219,502.5 390.1875,502.5 Q390.6563,502.5 390.9531,502.7813 Q391.25,503.0625 391.25,503.7188 L391.25,505.2813 Q391.25,505.9375 390.9688,506.2188 Q390.6875,506.5 390.25,506.5 Q389.8594,506.5 389.6094,506.3281 Q389.3594,506.1563 389.25,505.7031 Q389.2031,505.3906 389.0313,505.2188 Q388.7188,504.8906 388.1563,504.7031 Q387.5938,504.5 387.0313,504.5 Q386.3281,504.5 385.7344,504.7813 Q385.1563,505.0625 384.7031,505.6875 Q384.25,506.3125 384.25,507.1719 L384.25,508.0938 Q384.25,509.125 385.0938,509.8125 Q385.9375,510.5 387.4375,510.5 Q388.3281,510.5 388.9531,510.2969 Q389.3125,510.1875 389.7188,509.8281 Q389.9844,509.625 390.125,509.5625 Q390.2656,509.5 390.4375,509.5 Q390.7656,509.5 391,509.7656 Q391.25,510.0156 391.25,510.375 Q391.25,510.7188 390.9063,511.125 Q390.4063,511.7188 389.6094,512.0469 Q388.5625,512.5 387.2813,512.5 Q385.7813,512.5 384.5781,511.9063 Q383.6094,511.4375 382.9219,510.4219 Q382.25,509.4063 382.25,508.2031 L382.25,507.1094 Q382.25,505.8594 382.8438,504.7656 Q383.4531,503.6719 384.5,503.0938 Q385.5625,502.5 386.75,502.5 Q387.4688,502.5 388.0938,502.75 Q388.7188,503 389.25,503.5 Z " fill="#000000"/><text fill="#000000" font-family="sans-serif" font-size="14" lengthAdjust="spacing" textLength="73" x="407.75" y="512.7285">FrameStats</text><line style="stroke:#181818;stroke-width:0.5;" x1="294" x2="562" y1="523" y2="523"/><rect fill="none" height="6" style="stroke:#C82930;stroke-width:1.0;" width="6" x="301" y="531"/><text fill="#000000" font-family="sans-serif" font-size="14" lengthAdjust="spacing" textLength="105" x="313" y="541.5332">long frameCount</text><rect fill="none" height="6" style="stroke:#C82930;stroke-width:1.0;" width="6" x="301" y="548.6094"/><text fill="#000000" font-family="sans-serif" font-size="14" lengthAdjust="spacing" textLength="169" x="313" y="559.1426">double meanFrameInterval</text><rect fill="none" height="6" style="stroke:#C82930;stroke-width:1.0;" width="6" x="301" y="566.2188"/><text fill="#000000" font-family="sans-serif" font-size="14" lengthAdjust="spacing" textLength="181" x="313" y="576.752">ReadOnlyStringWrapper text</text><line style="stroke:#181818;stroke-width:0.5;" x1="294" x2="562" y1="583.8281" y2="583.8281"/><ellipse cx="304" cy="594.8281" fill="#84BE84" rx="3" ry="3" style="stroke:#038048;stroke-width:1.0;"/><text fill="#000000" font-family="sans-serif" font-size="14" lengthAdjust="spacing" textLength="140" x="313" y="602.3613">long getFrameCount()</text><ellipse cx="304" cy="612.4375" fill="#84BE84" rx="3" ry="3" style="stroke:#038048;stroke-width:1.0;"/><text fill="#000000" font-family="sans-serif" font-size="14" lengthAdjust="spacing" textLength="199" x="313" y="619.9707">double getMeanFrameInterval()</text><ellipse cx="304" cy="630.0469" fill="#84BE84" rx="3" ry="3" style="stroke:#038048;stroke-width:1.0;"/><text fill="#000000" font-family="sans-serif" font-size="14" lengthAdjust="spacing" textLength="132" x="313" y="637.5801">void addFrame(long)</text><ellipse cx="304" cy="647.6563" fill="#84BE84" rx="3" ry="3" style="stroke:#038048;stroke-width:1.0;"/><text fill="#000000" font-family="sans-serif" font-size="14" lengthAdjust="spacing" textLength="98" x="313" y="655.1895">String getText()</text><ellipse cx="304" cy="665.2656" fill="#84BE84" rx="3" ry="3" style="stroke:#038048;stroke-width:1.0;"/><text fill="#000000" font-family="sans-serif" font-size="14" lengthAdjust="spacing" textLength="244" x="313" y="672.7988">ReadOnlyStringProperty textProperty()</text><ellipse cx="304" cy="682.875" fill="#84BE84" rx="3" ry="3" style="stroke:#038048;stroke-width:1.0;"/><text fill="#000000" font-family="sans-serif" font-size="14" lengthAdjust="spacing" textLength="100" x="313" y="690.4082">String toString()</text></g><!--MD5=[591f6b9f911fedc8644b3efc1cca87dd]
class moteurJeu.DessinJeu--><g id="elem_moteurJeu.DessinJeu"><rect codeLine="53" fill="#F1F1F1" height="65.6094" id="moteurJeu.DessinJeu" rx="2.5" ry="2.5" style="stroke:#181818;stroke-width:0.5;" width="216" x="598" y="561"/><ellipse cx="668.75" cy="577" fill="#B4A7E5" rx="11" ry="11" style="stroke:#181818;stroke-width:1.0;"/><path d="M669.75,574 L669.75,580 L671.75,580 L672.2344,580 L672.75,580.625 L672.75,581 L672.75,581.375 L672.2344,582 L671.75,582 L665.75,582 L665.2656,582 L664.75,581.375 L664.75,581 L664.75,580.625 L665.2656,580 L665.75,580 L667.75,580 L667.75,574 L665.75,574 L665.2656,574 L664.75,573.375 L664.75,573 L664.75,572.625 L665.2656,572 L665.75,572 L671.75,572 L672.2344,572 L672.75,572.625 L672.75,573 L672.75,573.375 L672.2344,574 L671.75,574 L669.75,574 Z " fill="#000000"/><text fill="#000000" font-family="sans-serif" font-size="14" font-style="italic" lengthAdjust="spacing" textLength="66" x="689.25" y="582.7285">DessinJeu</text><line style="stroke:#181818;stroke-width:0.5;" x1="599" x2="813" y1="593" y2="593"/><line style="stroke:#181818;stroke-width:0.5;" x1="599" x2="813" y1="601" y2="601"/><polygon fill="#4177AF" points="609,608,605,614,613,614" style="stroke:#1963A0;stroke-width:1.0;"/><text fill="#000000" font-family="sans-serif" font-size="14" lengthAdjust="spacing" textLength="190" x="618" y="619.5332">void dessinerJeu(Jeu,Canvas)</text></g><!--MD5=[0566a5659c6ce825b2201c810d2b61a7]
class moteurJeu.Jeu--><g id="elem_moteurJeu.Jeu"><rect codeLine="69" fill="#F1F1F1" height="100.8281" id="moteurJeu.Jeu" rx="2.5" ry="2.5" style="stroke:#181818;stroke-width:0.5;" width="201" x="849.5" y="543.5"/><ellipse cx="934.25" cy="559.5" fill="#B4A7E5" rx="11" ry="11" style="stroke:#181818;stroke-width:1.0;"/><path d="M935.25,556.5 L935.25,562.5 L937.25,562.5 L937.7344,562.5 L938.25,563.125 L938.25,563.5 L938.25,563.875 L937.7344,564.5 L937.25,564.5 L931.25,564.5 L930.7656,564.5 L930.25,563.875 L930.25,563.5 L930.25,563.125 L930.7656,562.5 L931.25,562.5 L933.25,562.5 L933.25,556.5 L931.25,556.5 L930.7656,556.5 L930.25,555.875 L930.25,555.5 L930.25,555.125 L930.7656,554.5 L931.25,554.5 L937.25,554.5 L937.7344,554.5 L938.25,555.125 L938.25,555.5 L938.25,555.875 L937.7344,556.5 L937.25,556.5 L935.25,556.5 Z " fill="#000000"/><text fill="#000000" font-family="sans-serif" font-size="14" font-style="italic" lengthAdjust="spacing" textLength="23" x="954.75" y="565.2285">Jeu</text><line style="stroke:#181818;stroke-width:0.5;" x1="850.5" x2="1049.5" y1="575.5" y2="575.5"/><line style="stroke:#181818;stroke-width:0.5;" x1="850.5" x2="1049.5" y1="583.5" y2="583.5"/><polygon fill="#4177AF" points="860.5,590.5,856.5,596.5,864.5,596.5" style="stroke:#1963A0;stroke-width:1.0;"/><text fill="#000000" font-family="sans-serif" font-size="14" lengthAdjust="spacing" textLength="175" x="869.5" y="602.0332">void update(double,Clavier)</text><polygon fill="#4177AF" points="860.5,608.1094,856.5,614.1094,864.5,614.1094" style="stroke:#1963A0;stroke-width:1.0;"/><text fill="#000000" font-family="sans-serif" font-size="14" lengthAdjust="spacing" textLength="58" x="869.5" y="619.6426">void init()</text><polygon fill="#4177AF" points="860.5,625.7188,856.5,631.7188,864.5,631.7188" style="stroke:#1963A0;stroke-width:1.0;"/><text fill="#000000" font-family="sans-serif" font-size="14" lengthAdjust="spacing" textLength="113" x="869.5" y="637.252">boolean etreFini()</text></g><!--MD5=[59ac0dae74f78a62dbac4bde46dcb155]
class moteurJeu.MoteurJeu--><g id="elem_moteurJeu.MoteurJeu"><rect codeLine="83" fill="#F1F1F1" height="206.4844" id="moteurJeu.MoteurJeu" rx="2.5" ry="2.5" style="stroke:#181818;stroke-width:0.5;" width="209" x="461.5" y="175"/><ellipse cx="528.75" cy="191" fill="#ADD1B2" rx="11" ry="11" style="stroke:#181818;stroke-width:1.0;"/><path d="M530.75,187.5 Q530.9531,187 531.1875,186.75 Q531.4219,186.5 531.6875,186.5 Q532.1563,186.5 532.4531,186.7813 Q532.75,187.0625 532.75,187.7188 L532.75,189.2813 Q532.75,189.9375 532.4688,190.2188 Q532.1875,190.5 531.75,190.5 Q531.3594,190.5 531.1094,190.3281 Q530.8594,190.1563 530.75,189.7031 Q530.7031,189.3906 530.5313,189.2188 Q530.2188,188.8906 529.6563,188.7031 Q529.0938,188.5 528.5313,188.5 Q527.8281,188.5 527.2344,188.7813 Q526.6563,189.0625 526.2031,189.6875 Q525.75,190.3125 525.75,191.1719 L525.75,192.0938 Q525.75,193.125 526.5938,193.8125 Q527.4375,194.5 528.9375,194.5 Q529.8281,194.5 530.4531,194.2969 Q530.8125,194.1875 531.2188,193.8281 Q531.4844,193.625 531.625,193.5625 Q531.7656,193.5 531.9375,193.5 Q532.2656,193.5 532.5,193.7656 Q532.75,194.0156 532.75,194.375 Q532.75,194.7188 532.4063,195.125 Q531.9063,195.7188 531.1094,196.0469 Q530.0625,196.5 528.7813,196.5 Q527.2813,196.5 526.0781,195.9063 Q525.1094,195.4375 524.4219,194.4219 Q523.75,193.4063 523.75,192.2031 L523.75,191.1094 Q523.75,189.8594 524.3438,188.7656 Q524.9531,187.6719 526,187.0938 Q527.0625,186.5 528.25,186.5 Q528.9688,186.5 529.5938,186.75 Q530.2188,187 530.75,187.5 Z " fill="#000000"/><text fill="#000000" font-family="sans-serif" font-size="14" lengthAdjust="spacing" textLength="66" x="549.25" y="196.7285">MoteurJeu</text><line style="stroke:#181818;stroke-width:0.5;" x1="462.5" x2="669.5" y1="207" y2="207"/><rect fill="none" height="6" style="stroke:#C82930;stroke-width:1.0;" width="6" x="469.5" y="215"/><text fill="#000000" font-family="sans-serif" font-size="14" lengthAdjust="spacing" text-decoration="underline" textLength="74" x="481.5" y="225.5332">double FPS</text><rect fill="none" height="6" style="stroke:#C82930;stroke-width:1.0;" width="6" x="469.5" y="232.6094"/><text fill="#000000" font-family="sans-serif" font-size="14" lengthAdjust="spacing" text-decoration="underline" textLength="111" x="481.5" y="243.1426">double dureeFPS</text><rect fill="none" height="6" style="stroke:#C82930;stroke-width:1.0;" width="6" x="469.5" y="250.2188"/><text fill="#000000" font-family="sans-serif" font-size="14" lengthAdjust="spacing" text-decoration="underline" textLength="91" x="481.5" y="260.752">double WIDTH</text><rect fill="none" height="6" style="stroke:#C82930;stroke-width:1.0;" width="6" x="469.5" y="267.8281"/><text fill="#000000" font-family="sans-serif" font-size="14" lengthAdjust="spacing" text-decoration="underline" textLength="97" x="481.5" y="278.3613">double HEIGHT</text><line style="stroke:#181818;stroke-width:0.5;" x1="462.5" x2="669.5" y1="285.4375" y2="285.4375"/><ellipse cx="472.5" cy="296.4375" fill="#84BE84" rx="3" ry="3" style="stroke:#038048;stroke-width:1.0;"/><text fill="#000000" font-family="sans-serif" font-size="14" lengthAdjust="spacing" text-decoration="underline" textLength="173" x="481.5" y="303.9707">void launch(Jeu,DessinJeu)</text><ellipse cx="472.5" cy="314.0469" fill="#84BE84" rx="3" ry="3" style="stroke:#038048;stroke-width:1.0;"/><text fill="#000000" font-family="sans-serif" font-size="14" lengthAdjust="spacing" text-decoration="underline" textLength="101" x="481.5" y="321.5801">void setFPS(int)</text><ellipse cx="472.5" cy="331.6563" fill="#84BE84" rx="3" ry="3" style="stroke:#038048;stroke-width:1.0;"/><text fill="#000000" font-family="sans-serif" font-size="14" lengthAdjust="spacing" text-decoration="underline" textLength="183" x="481.5" y="339.1895">void setTaille(double,double)</text><ellipse cx="472.5" cy="349.2656" fill="#84BE84" rx="3" ry="3" style="stroke:#038048;stroke-width:1.0;"/><text fill="#000000" font-family="sans-serif" font-size="14" lengthAdjust="spacing" textLength="105" x="481.5" y="356.7988">void start(Stage)</text><rect fill="#F24D5C" height="6" style="stroke:#C82930;stroke-width:1.0;" width="6" x="469.5" y="363.875"/><text fill="#000000" font-family="sans-serif" font-size="14" lengthAdjust="spacing" textLength="178" x="481.5" y="374.4082">void startAnimation(Canvas)</text></g><!--MD5=[2bf042a19b7caec9f380341c620cec60]
class gameLaby.laby.Labyrinthe--><g id="elem_gameLaby.laby.Labyrinthe"><rect codeLine="35" fill="#F1F1F1" height="329.75" id="gameLaby.laby.Labyrinthe" rx="2.5" ry="2.5" style="stroke:#181818;stroke-width:0.5;" width="205" x="599.5" y="1207"/><ellipse cx="664.25" cy="1223" fill="#ADD1B2" rx="11" ry="11" style="stroke:#181818;stroke-width:1.0;"/><path d="M666.25,1219.5 Q666.4531,1219 666.6875,1218.75 Q666.9219,1218.5 667.1875,1218.5 Q667.6563,1218.5 667.9531,1218.7813 Q668.25,1219.0625 668.25,1219.7188 L668.25,1221.2813 Q668.25,1221.9375 667.9688,1222.2188 Q667.6875,1222.5 667.25,1222.5 Q666.8594,1222.5 666.6094,1222.3281 Q666.3594,1222.1563 666.25,1221.7031 Q666.2031,1221.3906 666.0313,1221.2188 Q665.7188,1220.8906 665.1563,1220.7031 Q664.5938,1220.5 664.0313,1220.5 Q663.3281,1220.5 662.7344,1220.7813 Q662.1563,1221.0625 661.7031,1221.6875 Q661.25,1222.3125 661.25,1223.1719 L661.25,1224.0938 Q661.25,1225.125 662.0938,1225.8125 Q662.9375,1226.5 664.4375,1226.5 Q665.3281,1226.5 665.9531,1226.2969 Q666.3125,1226.1875 666.7188,1225.8281 Q666.9844,1225.625 667.125,1225.5625 Q667.2656,1225.5 667.4375,1225.5 Q667.7656,1225.5 668,1225.7656 Q668.25,1226.0156 668.25,1226.375 Q668.25,1226.7188 667.9063,1227.125 Q667.4063,1227.7188 666.6094,1228.0469 Q665.5625,1228.5 664.2813,1228.5 Q662.7813,1228.5 661.5781,1227.9063 Q660.6094,1227.4375 659.9219,1226.4219 Q659.25,1225.4063 659.25,1224.2031 L659.25,1223.1094 Q659.25,1221.8594 659.8438,1220.7656 Q660.4531,1219.6719 661.5,1219.0938 Q662.5625,1218.5 663.75,1218.5 Q664.4688,1218.5 665.0938,1218.75 Q665.7188,1219 666.25,1219.5 Z " fill="#000000"/><text fill="#000000" font-family="sans-serif" font-size="14" lengthAdjust="spacing" textLength="67" x="684.75" y="1228.7285">Labyrinthe</text><line style="stroke:#181818;stroke-width:0.5;" x1="600.5" x2="803.5" y1="1239" y2="1239"/><ellipse cx="610.5" cy="1250" fill="none" rx="3" ry="3" style="stroke:#038048;stroke-width:1.0;"/><text fill="#000000" font-family="sans-serif" font-size="14" lengthAdjust="spacing" text-decoration="underline" textLength="62" x="619.5" y="1257.5332">char MUR</text><ellipse cx="610.5" cy="1267.6094" fill="none" rx="3" ry="3" style="stroke:#038048;stroke-width:1.0;"/><text fill="#000000" font-family="sans-serif" font-size="14" lengthAdjust="spacing" text-decoration="underline" textLength="47" x="619.5" y="1275.1426">char PJ</text><ellipse cx="610.5" cy="1285.2188" fill="none" rx="3" ry="3" style="stroke:#038048;stroke-width:1.0;"/><text fill="#000000" font-family="sans-serif" font-size="14" lengthAdjust="spacing" text-decoration="underline" textLength="63" x="619.5" y="1292.752">char VIDE</text><ellipse cx="610.5" cy="1302.8281" fill="none" rx="3" ry="3" style="stroke:#038048;stroke-width:1.0;"/><text fill="#000000" font-family="sans-serif" font-size="14" lengthAdjust="spacing" text-decoration="underline" textLength="77" x="619.5" y="1310.3613">String HAUT</text><ellipse cx="610.5" cy="1320.4375" fill="none" rx="3" ry="3" style="stroke:#038048;stroke-width:1.0;"/><text fill="#000000" font-family="sans-serif" font-size="14" lengthAdjust="spacing" text-decoration="underline" textLength="68" x="619.5" y="1327.9707">String BAS</text><ellipse cx="610.5" cy="1338.0469" fill="none" rx="3" ry="3" style="stroke:#038048;stroke-width:1.0;"/><text fill="#000000" font-family="sans-serif" font-size="14" lengthAdjust="spacing" text-decoration="underline" textLength="98" x="619.5" y="1345.5801">String GAUCHE</text><ellipse cx="610.5" cy="1355.6563" fill="none" rx="3" ry="3" style="stroke:#038048;stroke-width:1.0;"/><text fill="#000000" font-family="sans-serif" font-size="14" lengthAdjust="spacing" text-decoration="underline" textLength="93" x="619.5" y="1363.1895">String DROITE</text><ellipse cx="610.5" cy="1373.2656" fill="none" rx="3" ry="3" style="stroke:#038048;stroke-width:1.0;"/><text fill="#000000" font-family="sans-serif" font-size="14" lengthAdjust="spacing" textLength="52" x="619.5" y="1380.7988">Perso pj</text><ellipse cx="610.5" cy="1390.875" fill="none" rx="3" ry="3" style="stroke:#038048;stroke-width:1.0;"/><text fill="#000000" font-family="sans-serif" font-size="14" lengthAdjust="spacing" textLength="102" x="619.5" y="1398.4082">boolean[][] murs</text><line style="stroke:#181818;stroke-width:0.5;" x1="600.5" x2="803.5" y1="1405.4844" y2="1405.4844"/><ellipse cx="610.5" cy="1416.4844" fill="#84BE84" rx="3" ry="3" style="stroke:#038048;stroke-width:1.0;"/><text fill="#000000" font-family="sans-serif" font-size="14" lengthAdjust="spacing" textLength="177" x="619.5" y="1424.0176">«Create» Labyrinthe(String)</text><polygon fill="#4177AF" points="610.5,1430.0938,606.5,1436.0938,614.5,1436.0938" style="stroke:#1963A0;stroke-width:1.0;"/><text fill="#000000" font-family="sans-serif" font-size="14" lengthAdjust="spacing" text-decoration="underline" textLength="179" x="619.5" y="1441.627">int[] getSuivant(int,int,String)</text><ellipse cx="610.5" cy="1451.7031" fill="#84BE84" rx="3" ry="3" style="stroke:#038048;stroke-width:1.0;"/><text fill="#000000" font-family="sans-serif" font-size="14" lengthAdjust="spacing" textLength="169" x="619.5" y="1459.2363">void deplacerPerso(String)</text><ellipse cx="610.5" cy="1469.3125" fill="#84BE84" rx="3" ry="3" style="stroke:#038048;stroke-width:1.0;"/><text fill="#000000" font-family="sans-serif" font-size="14" lengthAdjust="spacing" textLength="113" x="619.5" y="1476.8457">boolean etreFini()</text><ellipse cx="610.5" cy="1486.9219" fill="#84BE84" rx="3" ry="3" style="stroke:#038048;stroke-width:1.0;"/><text fill="#000000" font-family="sans-serif" font-size="14" lengthAdjust="spacing" textLength="102" x="619.5" y="1494.4551">int getLengthY()</text><ellipse cx="610.5" cy="1504.5313" fill="#84BE84" rx="3" ry="3" style="stroke:#038048;stroke-width:1.0;"/><text fill="#000000" font-family="sans-serif" font-size="14" lengthAdjust="spacing" textLength="93" x="619.5" y="1512.0645">int getLength()</text><ellipse cx="610.5" cy="1522.1406" fill="#84BE84" rx="3" ry="3" style="stroke:#038048;stroke-width:1.0;"/><text fill="#000000" font-family="sans-serif" font-size="14" lengthAdjust="spacing" textLength="143" x="619.5" y="1529.6738">boolean getMur(int,int)</text></g><!--MD5=[5c1058acac23f901acb52fa6a087d6f8]
class gameLaby.laby.LabyDessin--><g id="elem_gameLaby.laby.LabyDessin"><rect codeLine="56" fill="#F1F1F1" height="83.2188" id="gameLaby.laby.LabyDessin" rx="2.5" ry="2.5" style="stroke:#181818;stroke-width:0.5;" width="216" x="634" y="814"/><ellipse cx="700.75" cy="830" fill="#ADD1B2" rx="11" ry="11" style="stroke:#181818;stroke-width:1.0;"/><path d="M702.75,826.5 Q702.9531,826 703.1875,825.75 Q703.4219,825.5 703.6875,825.5 Q704.1563,825.5 704.4531,825.7813 Q704.75,826.0625 704.75,826.7188 L704.75,828.2813 Q704.75,828.9375 704.4688,829.2188 Q704.1875,829.5 703.75,829.5 Q703.3594,829.5 703.1094,829.3281 Q702.8594,829.1563 702.75,828.7031 Q702.7031,828.3906 702.5313,828.2188 Q702.2188,827.8906 701.6563,827.7031 Q701.0938,827.5 700.5313,827.5 Q699.8281,827.5 699.2344,827.7813 Q698.6563,828.0625 698.2031,828.6875 Q697.75,829.3125 697.75,830.1719 L697.75,831.0938 Q697.75,832.125 698.5938,832.8125 Q699.4375,833.5 700.9375,833.5 Q701.8281,833.5 702.4531,833.2969 Q702.8125,833.1875 703.2188,832.8281 Q703.4844,832.625 703.625,832.5625 Q703.7656,832.5 703.9375,832.5 Q704.2656,832.5 704.5,832.7656 Q704.75,833.0156 704.75,833.375 Q704.75,833.7188 704.4063,834.125 Q703.9063,834.7188 703.1094,835.0469 Q702.0625,835.5 700.7813,835.5 Q699.2813,835.5 698.0781,834.9063 Q697.1094,834.4375 696.4219,833.4219 Q695.75,832.4063 695.75,831.2031 L695.75,830.1094 Q695.75,828.8594 696.3438,827.7656 Q696.9531,826.6719 698,826.0938 Q699.0625,825.5 700.25,825.5 Q700.9688,825.5 701.5938,825.75 Q702.2188,826 702.75,826.5 Z " fill="#000000"/><text fill="#000000" font-family="sans-serif" font-size="14" lengthAdjust="spacing" textLength="74" x="721.25" y="835.7285">LabyDessin</text><line style="stroke:#181818;stroke-width:0.5;" x1="635" x2="849" y1="846" y2="846"/><line style="stroke:#181818;stroke-width:0.5;" x1="635" x2="849" y1="854" y2="854"/><polygon fill="#4177AF" points="645,861,641,867,649,867" style="stroke:#1963A0;stroke-width:1.0;"/><text fill="#000000" font-family="sans-serif" font-size="14" lengthAdjust="spacing" textLength="127" x="654" y="872.5332">char getChar(int,int)</text><ellipse cx="645" cy="882.6094" fill="#84BE84" rx="3" ry="3" style="stroke:#038048;stroke-width:1.0;"/><text fill="#000000" font-family="sans-serif" font-size="14" lengthAdjust="spacing" textLength="190" x="654" y="890.1426">void dessinerJeu(Jeu,Canvas)</text></g><!--MD5=[7518963d21009f721e2589a0224588fc]
class gameLaby.laby.LabyJeu--><g id="elem_gameLaby.laby.LabyJeu"><rect codeLine="61" fill="#F1F1F1" height="153.6563" id="gameLaby.laby.LabyJeu" rx="2.5" ry="2.5" style="stroke:#181818;stroke-width:0.5;" width="201" x="782.5" y="975"/><ellipse cx="852.25" cy="991" fill="#ADD1B2" rx="11" ry="11" style="stroke:#181818;stroke-width:1.0;"/><path d="M854.25,987.5 Q854.4531,987 854.6875,986.75 Q854.9219,986.5 855.1875,986.5 Q855.6563,986.5 855.9531,986.7813 Q856.25,987.0625 856.25,987.7188 L856.25,989.2813 Q856.25,989.9375 855.9688,990.2188 Q855.6875,990.5 855.25,990.5 Q854.8594,990.5 854.6094,990.3281 Q854.3594,990.1563 854.25,989.7031 Q854.2031,989.3906 854.0313,989.2188 Q853.7188,988.8906 853.1563,988.7031 Q852.5938,988.5 852.0313,988.5 Q851.3281,988.5 850.7344,988.7813 Q850.1563,989.0625 849.7031,989.6875 Q849.25,990.3125 849.25,991.1719 L849.25,992.0938 Q849.25,993.125 850.0938,993.8125 Q850.9375,994.5 852.4375,994.5 Q853.3281,994.5 853.9531,994.2969 Q854.3125,994.1875 854.7188,993.8281 Q854.9844,993.625 855.125,993.5625 Q855.2656,993.5 855.4375,993.5 Q855.7656,993.5 856,993.7656 Q856.25,994.0156 856.25,994.375 Q856.25,994.7188 855.9063,995.125 Q855.4063,995.7188 854.6094,996.0469 Q853.5625,996.5 852.2813,996.5 Q850.7813,996.5 849.5781,995.9063 Q848.6094,995.4375 847.9219,994.4219 Q847.25,993.4063 847.25,992.2031 L847.25,991.1094 Q847.25,989.8594 847.8438,988.7656 Q848.4531,987.6719 849.5,987.0938 Q850.5625,986.5 851.75,986.5 Q852.4688,986.5 853.0938,986.75 Q853.7188,987 854.25,987.5 Z " fill="#000000"/><text fill="#000000" font-family="sans-serif" font-size="14" lengthAdjust="spacing" textLength="53" x="872.75" y="996.7285">LabyJeu</text><line style="stroke:#181818;stroke-width:0.5;" x1="783.5" x2="982.5" y1="1007" y2="1007"/><line style="stroke:#181818;stroke-width:0.5;" x1="783.5" x2="982.5" y1="1015" y2="1015"/><ellipse cx="793.5" cy="1026" fill="#84BE84" rx="3" ry="3" style="stroke:#038048;stroke-width:1.0;"/><text fill="#000000" font-family="sans-serif" font-size="14" lengthAdjust="spacing" textLength="126" x="802.5" y="1033.5332">«Create» LabyJeu()</text><ellipse cx="793.5" cy="1043.6094" fill="#84BE84" rx="3" ry="3" style="stroke:#038048;stroke-width:1.0;"/><text fill="#000000" font-family="sans-serif" font-size="14" lengthAdjust="spacing" textLength="175" x="802.5" y="1051.1426">void update(double,Clavier)</text><ellipse cx="793.5" cy="1061.2188" fill="#84BE84" rx="3" ry="3" style="stroke:#038048;stroke-width:1.0;"/><text fill="#000000" font-family="sans-serif" font-size="14" lengthAdjust="spacing" textLength="58" x="802.5" y="1068.752">void init()</text><ellipse cx="793.5" cy="1078.8281" fill="#84BE84" rx="3" ry="3" style="stroke:#038048;stroke-width:1.0;"/><text fill="#000000" font-family="sans-serif" font-size="14" lengthAdjust="spacing" textLength="113" x="802.5" y="1086.3613">boolean etreFini()</text><ellipse cx="793.5" cy="1096.4375" fill="#84BE84" rx="3" ry="3" style="stroke:#038048;stroke-width:1.0;"/><text fill="#000000" font-family="sans-serif" font-size="14" lengthAdjust="spacing" textLength="132" x="802.5" y="1103.9707">Labyrinthe getLaby()</text><ellipse cx="793.5" cy="1114.0469" fill="#84BE84" rx="3" ry="3" style="stroke:#038048;stroke-width:1.0;"/><text fill="#000000" font-family="sans-serif" font-size="14" lengthAdjust="spacing" textLength="108" x="802.5" y="1121.5801">Perso getPerso()</text></g><!--MD5=[b660eaee71b19604176468e288e616a0]
class gameLaby.laby.Perso--><g id="elem_gameLaby.laby.Perso"><rect codeLine="75" fill="#F1F1F1" height="136.0469" id="gameLaby.laby.Perso" rx="2.5" ry="2.5" style="stroke:#181818;stroke-width:0.5;" width="199" x="839.5" y="1304"/><ellipse cx="916.25" cy="1320" fill="#ADD1B2" rx="11" ry="11" style="stroke:#181818;stroke-width:1.0;"/><path d="M918.25,1316.5 Q918.4531,1316 918.6875,1315.75 Q918.9219,1315.5 919.1875,1315.5 Q919.6563,1315.5 919.9531,1315.7813 Q920.25,1316.0625 920.25,1316.7188 L920.25,1318.2813 Q920.25,1318.9375 919.9688,1319.2188 Q919.6875,1319.5 919.25,1319.5 Q918.8594,1319.5 918.6094,1319.3281 Q918.3594,1319.1563 918.25,1318.7031 Q918.2031,1318.3906 918.0313,1318.2188 Q917.7188,1317.8906 917.1563,1317.7031 Q916.5938,1317.5 916.0313,1317.5 Q915.3281,1317.5 914.7344,1317.7813 Q914.1563,1318.0625 913.7031,1318.6875 Q913.25,1319.3125 913.25,1320.1719 L913.25,1321.0938 Q913.25,1322.125 914.0938,1322.8125 Q914.9375,1323.5 916.4375,1323.5 Q917.3281,1323.5 917.9531,1323.2969 Q918.3125,1323.1875 918.7188,1322.8281 Q918.9844,1322.625 919.125,1322.5625 Q919.2656,1322.5 919.4375,1322.5 Q919.7656,1322.5 920,1322.7656 Q920.25,1323.0156 920.25,1323.375 Q920.25,1323.7188 919.9063,1324.125 Q919.4063,1324.7188 918.6094,1325.0469 Q917.5625,1325.5 916.2813,1325.5 Q914.7813,1325.5 913.5781,1324.9063 Q912.6094,1324.4375 911.9219,1323.4219 Q911.25,1322.4063 911.25,1321.2031 L911.25,1320.1094 Q911.25,1318.8594 911.8438,1317.7656 Q912.4531,1316.6719 913.5,1316.0938 Q914.5625,1315.5 915.75,1315.5 Q916.4688,1315.5 917.0938,1315.75 Q917.7188,1316 918.25,1316.5 Z " fill="#000000"/><text fill="#000000" font-family="sans-serif" font-size="14" lengthAdjust="spacing" textLength="37" x="936.75" y="1325.7285">Perso</text><line style="stroke:#181818;stroke-width:0.5;" x1="840.5" x2="1037.5" y1="1336" y2="1336"/><polygon fill="none" points="850.5,1343,846.5,1349,854.5,1349" style="stroke:#1963A0;stroke-width:1.0;"/><text fill="#000000" font-family="sans-serif" font-size="14" lengthAdjust="spacing" textLength="25" x="859.5" y="1354.5332">int x</text><line style="stroke:#181818;stroke-width:0.5;" x1="840.5" x2="1037.5" y1="1361.6094" y2="1361.6094"/><ellipse cx="850.5" cy="1372.6094" fill="#84BE84" rx="3" ry="3" style="stroke:#038048;stroke-width:1.0;"/><text fill="#000000" font-family="sans-serif" font-size="14" lengthAdjust="spacing" textLength="144" x="859.5" y="1380.1426">«Create» Perso(int,int)</text><ellipse cx="850.5" cy="1390.2188" fill="#84BE84" rx="3" ry="3" style="stroke:#038048;stroke-width:1.0;"/><text fill="#000000" font-family="sans-serif" font-size="14" lengthAdjust="spacing" textLength="173" x="859.5" y="1397.752">boolean etrePresent(int,int)</text><ellipse cx="850.5" cy="1407.8281" fill="#84BE84" rx="3" ry="3" style="stroke:#038048;stroke-width:1.0;"/><text fill="#000000" font-family="sans-serif" font-size="14" lengthAdjust="spacing" textLength="57" x="859.5" y="1415.3613">int getX()</text><ellipse cx="850.5" cy="1425.4375" fill="#84BE84" rx="3" ry="3" style="stroke:#038048;stroke-width:1.0;"/><text fill="#000000" font-family="sans-serif" font-size="14" lengthAdjust="spacing" textLength="58" x="859.5" y="1432.9707">int getY()</text></g><!--MD5=[e3612552781b2b3849880f2b7cc3064d]
class javafx.application.Application--><g id="elem_javafx.application.Application"><rect fill="#F1F1F1" height="48" id="javafx.application.Application" rx="2.5" ry="2.5" style="stroke:#181818;stroke-width:0.5;" width="101" x="515.5" y="42"/><ellipse cx="530.5" cy="58" fill="#ADD1B2" rx="11" ry="11" style="stroke:#181818;stroke-width:1.0;"/><path d="M532.5,54.5 Q532.7031,54 532.9375,53.75 Q533.1719,53.5 533.4375,53.5 Q533.9063,53.5 534.2031,53.7813 Q534.5,54.0625 534.5,54.7188 L534.5,56.2813 Q534.5,56.9375 534.2188,57.2188 Q533.9375,57.5 533.5,57.5 Q533.1094,57.5 532.8594,57.3281 Q532.6094,57.1563 532.5,56.7031 Q532.4531,56.3906 532.2813,56.2188 Q531.9688,55.8906 531.4063,55.7031 Q530.8438,55.5 530.2813,55.5 Q529.5781,55.5 528.9844,55.7813 Q528.4063,56.0625 527.9531,56.6875 Q527.5,57.3125 527.5,58.1719 L527.5,59.0938 Q527.5,60.125 528.3438,60.8125 Q529.1875,61.5 530.6875,61.5 Q531.5781,61.5 532.2031,61.2969 Q532.5625,61.1875 532.9688,60.8281 Q533.2344,60.625 533.375,60.5625 Q533.5156,60.5 533.6875,60.5 Q534.0156,60.5 534.25,60.7656 Q534.5,61.0156 534.5,61.375 Q534.5,61.7188 534.1563,62.125 Q533.6563,62.7188 532.8594,63.0469 Q531.8125,63.5 530.5313,63.5 Q529.0313,63.5 527.8281,62.9063 Q526.8594,62.4375 526.1719,61.4219 Q525.5,60.4063 525.5,59.2031 L525.5,58.1094 Q525.5,56.8594 526.0938,55.7656 Q526.7031,54.6719 527.75,54.0938 Q528.8125,53.5 530,53.5 Q530.7188,53.5 531.3438,53.75 Q531.9688,54 532.5,54.5 Z " fill="#000000"/><text fill="#000000" font-family="sans-serif" font-size="14" lengthAdjust="spacing" textLength="69" x="544.5" y="63.7285">Application</text><line style="stroke:#181818;stroke-width:0.5;" x1="516.5" x2="615.5" y1="74" y2="74"/><line style="stroke:#181818;stroke-width:0.5;" x1="516.5" x2="615.5" y1="82" y2="82"/></g><!--MD5=[98012c4b17afe8b59e54ed1a6adde1dc]
reverse link moteurJeu.DessinJeu to gameLaby.laby.LabyDessin--><g id="link_moteurJeu.DessinJeu_gameLaby.laby.LabyDessin"><path codeLine="96" d="M713.24,647.2 C720.06,696.38 730.14,769.03 736.38,813.97 " fill="none" id="moteurJeu.DessinJeu-backto-gameLaby.laby.LabyDessin" style="stroke:#181818;stroke-width:1.0;stroke-dasharray:7.0,7.0;"/><polygon fill="none" points="706.27,647.85,710.45,627.08,720.13,645.93,706.27,647.85" style="stroke:#181818;stroke-width:1.0;"/></g><!--MD5=[55b1fd11eabe894e48bdf5bcb9e93328]
reverse link moteurJeu.Jeu to gameLaby.laby.LabyJeu--><g id="link_moteurJeu.Jeu_gameLaby.laby.LabyJeu"><path codeLine="97" d="M939.76,664.68 C927.46,748.42 906.88,888.44 894.18,974.93 " fill="none" id="moteurJeu.Jeu-backto-gameLaby.laby.LabyJeu" style="stroke:#181818;stroke-width:1.0;stroke-dasharray:7.0,7.0;"/><polygon fill="none" points="932.87,663.44,942.7,644.67,946.72,665.47,932.87,663.44" style="stroke:#181818;stroke-width:1.0;"/></g><!--MD5=[ecb6dee987b5ca053c24350e59fc57b0]
reverse link javafx.application.Application to moteurJeu.MoteurJeu--><g id="link_javafx.application.Application_moteurJeu.MoteurJeu"><path codeLine="98" d="M566,110.56 C566,129.35 566,152.19 566,174.85 " fill="none" id="javafx.application.Application-backto-moteurJeu.MoteurJeu" style="stroke:#181818;stroke-width:1.0;"/><polygon fill="none" points="559,110.28,566,90.28,573,110.28,559,110.28" style="stroke:#181818;stroke-width:1.0;"/></g><!--MD5=[c2c7be634c37acac64fa81d03d030da8]
link moteurJeu.MoteurJeu to moteurJeu.Clavier--><g id="link_moteurJeu.MoteurJeu_moteurJeu.Clavier"><path codeLine="99" d="M461.29,336.38 C404.43,369.38 334.09,413.28 276,459 C271.22,462.76 266.42,466.68 261.64,470.7 " fill="none" id="moteurJeu.MoteurJeu-to-moteurJeu.Clavier" style="stroke:#181818;stroke-width:1.0;"/><polygon fill="#181818" points="257.63,474.1,267.0838,471.3385,261.4464,470.8696,261.9152,465.2323,257.63,474.1" style="stroke:#181818;stroke-width:1.0;"/><rect fill="none" height="6" style="stroke:#C82930;stroke-width:1.0;" width="6" x="339" y="417.6758"/><text fill="#000000" font-family="sans-serif" font-size="13" lengthAdjust="spacing" textLength="46" x="349" y="425.4951">controle</text><text fill="#000000" font-family="sans-serif" font-size="13" lengthAdjust="spacing" textLength="7" x="446.3433" y="337.57">1</text><text fill="#000000" font-family="sans-serif" font-size="13" lengthAdjust="spacing" textLength="7" x="265.3899" y="463.4123">1</text></g><!--MD5=[c10619b2e8687c28c235c39f4f5a730d]
link moteurJeu.MoteurJeu to moteurJeu.Jeu--><g id="link_moteurJeu.MoteurJeu_moteurJeu.Jeu"><path codeLine="100" d="M670.53,341.01 C721.47,373.35 782.3,415.25 832,459 C859.5,483.21 886.75,513.62 908.13,539.35 " fill="none" id="moteurJeu.MoteurJeu-to-moteurJeu.Jeu" style="stroke:#181818;stroke-width:1.0;"/><polygon fill="#181818" points="911.51,543.44,908.8455,533.9584,908.3189,539.5907,902.6867,539.0641,911.51,543.44" style="stroke:#181818;stroke-width:1.0;"/><rect fill="none" height="6" style="stroke:#C82930;stroke-width:1.0;" width="6" x="794" y="417.6758"/><text fill="#000000" font-family="sans-serif" font-size="13" lengthAdjust="spacing" textLength="69" x="804" y="425.4951">&lt;static&gt; jeu</text><text fill="#000000" font-family="sans-serif" font-size="13" lengthAdjust="spacing" textLength="7" x="678.4635" y="342.54">1</text><text fill="#000000" font-family="sans-serif" font-size="13" lengthAdjust="spacing" textLength="7" x="898.6052" y="532.7369">1</text></g><!--MD5=[41b73a5c9fe56f49f07549ee14f64e07]
link moteurJeu.MoteurJeu to moteurJeu.DessinJeu--><g id="link_moteurJeu.MoteurJeu_moteurJeu.DessinJeu"><path codeLine="101" d="M619.01,381.26 C623.86,391.25 628.6,401.29 633,411 C655.4,460.41 678.19,518.82 692.22,555.89 " fill="none" id="moteurJeu.MoteurJeu-to-moteurJeu.DessinJeu" style="stroke:#181818;stroke-width:1.0;"/><polygon fill="#181818" points="694.05,560.75,694.599,550.9165,692.2772,556.0748,687.1188,553.753,694.05,560.75" style="stroke:#181818;stroke-width:1.0;"/><rect fill="none" height="6" style="stroke:#C82930;stroke-width:1.0;" width="6" x="642" y="417.6758"/><text fill="#000000" font-family="sans-serif" font-size="13" lengthAdjust="spacing" textLength="90" x="652" y="425.4951">&lt;static&gt; dessin</text><text fill="#000000" font-family="sans-serif" font-size="13" lengthAdjust="spacing" textLength="7" x="615.6459" y="402.9209">1</text><text fill="#000000" font-family="sans-serif" font-size="13" lengthAdjust="spacing" textLength="7" x="684.0083" y="550.1971">1</text></g><!--MD5=[096986cb861f432d82c02b1d067b9adf]
link moteurJeu.MoteurJeu to moteurJeu.FrameStats--><g id="link_moteurJeu.MoteurJeu_moteurJeu.FrameStats"><path codeLine="102" d="M521,381.38 C506.31,414.81 489.96,452.02 475.11,485.8 " fill="none" id="moteurJeu.MoteurJeu-to-moteurJeu.FrameStats" style="stroke:#181818;stroke-width:1.0;"/><polygon fill="#181818" points="472.93,490.76,480.1944,484.1095,474.9288,486.1769,472.8615,480.9114,472.93,490.76" style="stroke:#181818;stroke-width:1.0;"/><rect fill="none" height="6" style="stroke:#C82930;stroke-width:1.0;" width="6" x="508" y="417.6758"/><text fill="#000000" font-family="sans-serif" font-size="13" lengthAdjust="spacing" textLength="106" x="518" y="425.4951">&lt;final&gt; frameStats</text><text fill="#000000" font-family="sans-serif" font-size="13" lengthAdjust="spacing" textLength="7" x="510.4383" y="403.0497">1</text><text fill="#000000" font-family="sans-serif" font-size="13" lengthAdjust="spacing" textLength="7" x="468.9725" y="480.0811">1</text></g><!--MD5=[7e058d8952629d41a4b46f64376298cd]
link gameLaby.laby.LabyJeu to gameLaby.laby.Labyrinthe--><g id="link_gameLaby.laby.LabyJeu_gameLaby.laby.Labyrinthe"><path codeLine="103" d="M839.65,1129.17 C826.94,1151.49 812.52,1176.83 797.91,1202.5 " fill="none" id="gameLaby.laby.LabyJeu-to-gameLaby.laby.Labyrinthe" style="stroke:#181818;stroke-width:1.0;"/><polygon fill="#181818" points="795.37,1206.96,803.2979,1201.1163,797.843,1202.6144,796.3449,1197.1595,795.37,1206.96" style="stroke:#181818;stroke-width:1.0;"/><rect fill="none" height="6" style="stroke:#C82930;stroke-width:1.0;" width="6" x="822" y="1165.6758"/><text fill="#000000" font-family="sans-serif" font-size="13" lengthAdjust="spacing" textLength="24" x="832" y="1173.4951">laby</text><text fill="#000000" font-family="sans-serif" font-size="13" lengthAdjust="spacing" textLength="20" x="814.8985" y="1150.2815">0..*</text><text fill="#000000" font-family="sans-serif" font-size="13" lengthAdjust="spacing" textLength="7" x="792.7231" y="1196.0881">1</text></g><!--MD5=[ee013944597a6fbb505dba769c29ea2d]
link gameLaby.laby.LabyJeu to gameLaby.laby.Perso--><g id="link_gameLaby.laby.LabyJeu_gameLaby.laby.Perso"><path codeLine="104" d="M896.41,1129.17 C905.47,1180.6 917.35,1248.07 926.26,1298.67 " fill="none" id="gameLaby.laby.LabyJeu-to-gameLaby.laby.Perso" style="stroke:#181818;stroke-width:1.0;"/><polygon fill="#181818" points="927.17,1303.82,929.5419,1294.261,926.2994,1298.8964,921.6641,1295.6539,927.17,1303.82" style="stroke:#181818;stroke-width:1.0;"/><rect fill="none" height="6" style="stroke:#C82930;stroke-width:1.0;" width="6" x="907" y="1165.6758"/><text fill="#000000" font-family="sans-serif" font-size="13" lengthAdjust="spacing" textLength="32" x="917" y="1173.4951">perso</text><text fill="#000000" font-family="sans-serif" font-size="13" lengthAdjust="spacing" textLength="7" x="890.2926" y="1150.2815">1</text><text fill="#000000" font-family="sans-serif" font-size="13" lengthAdjust="spacing" textLength="7" x="918.4933" y="1292.9996">1</text></g><!--MD5=[9c4edca7cf8de452e63db43e2e328884]
link gameLaby.laby.LabyDessin to gameLaby.laby.LabyJeu--><g id="link_gameLaby.laby.LabyDessin_gameLaby.laby.LabyJeu"><path codeLine="105" d="M771.56,897.27 C787.04,918.63 806.56,945.55 824.91,970.88 " fill="none" id="gameLaby.laby.LabyDessin-to-gameLaby.laby.LabyJeu" style="stroke:#181818;stroke-width:1.0;"/><polygon fill="#181818" points="827.85,974.92,825.8096,965.2848,824.9168,970.8708,819.3309,969.9779,827.85,974.92" style="stroke:#181818;stroke-width:1.0;"/><rect fill="none" height="6" style="stroke:#C82930;stroke-width:1.0;" width="6" x="807" y="933.6758"/><text fill="#000000" font-family="sans-serif" font-size="13" lengthAdjust="spacing" textLength="17" x="817" y="941.4951">lab</text><text fill="#000000" font-family="sans-serif" font-size="13" lengthAdjust="spacing" textLength="7" x="768.7133" y="918.7078">1</text><text fill="#000000" font-family="sans-serif" font-size="13" lengthAdjust="spacing" textLength="7" x="815.0766" y="964.0743">1</text></g><!--MD5=[da6c145d2a3ced24e7c1e91d64fef2ab]
@startuml

skinparam class{
  BackgroundColor<<Nouveau>> Orange
  BorderColor<<Nouveau>> Black
}

class moteurJeu.Clavier<<Nouveau>>
{
    + haut  : boolean
    + bas : boolean
    + gauche : boolean
    + droit : boolean

    - toucheHaut : KeyCode
    - toucheBas : KeyCode
    - toucheGauche : KeyCode
    - toucheDroite : KeyCode

    + appuyerTouche(KeyEvent event)
    + relacherTouche(KeyEvent event)
    + configurerTouches()
}

class moteurJeu.FrameStats {
- long frameCount
- double meanFrameInterval
- ReadOnlyStringWrapper text
+ long getFrameCount()
+ double getMeanFrameInterval()
+ void addFrame(long)
+ String getText()
+ ReadOnlyStringProperty textProperty()
+ String toString()
}
class gameLaby.laby.Labyrinthe {
+ {static} char MUR
+ {static} char PJ
+ {static} char VIDE
+ {static} String HAUT
+ {static} String BAS
+ {static} String GAUCHE
+ {static} String DROITE
+ Perso pj
+ boolean[][] murs
+ <<Create>> Labyrinthe(String)
~ {static} int[] getSuivant(int,int,String)
+ void deplacerPerso(String)
+ boolean etreFini()
+ int getLengthY()
+ int getLength()
+ boolean getMur(int,int)
}
interface moteurJeu.DessinJeu {
~ void dessinerJeu(Jeu,Canvas)
}
class gameLaby.laby.LabyDessin {
~ char getChar(int,int)
+ void dessinerJeu(Jeu,Canvas)
}

class gameLaby.laby.LabyJeu {
+ <<Create>> LabyJeu()
+ void update(double,Clavier)
+ void init()
+ boolean etreFini()
+ Labyrinthe getLaby()
+ Perso getPerso()
}
interface moteurJeu.Jeu {
~ void update(double,Clavier)
~ void init()
~ boolean etreFini()
}

class gameLaby.laby.Perso {
~ int x
+ <<Create>> Perso(int,int)
+ boolean etrePresent(int,int)
+ int getX()
+ int getY()
}

class moteurJeu.MoteurJeu {
- {static} double FPS
- {static} double dureeFPS
- {static} double WIDTH
- {static} double HEIGHT
+ {static} void launch(Jeu,DessinJeu)
+ {static} void setFPS(int)
+ {static} void setTaille(double,double)
+ void start(Stage)
- void startAnimation(Canvas)
}


moteurJeu.DessinJeu <|.. gameLaby.laby.LabyDessin
moteurJeu.Jeu <|.. gameLaby.laby.LabyJeu
javafx.application.Application <|- - moteurJeu.MoteurJeu
moteurJeu.MoteurJeu "1" - -> "1" moteurJeu.Clavier : - controle
moteurJeu.MoteurJeu "1" - -> "1" moteurJeu.Jeu : - <static> jeu
moteurJeu.MoteurJeu "1" - -> "1" moteurJeu.DessinJeu : - <static> dessin
moteurJeu.MoteurJeu "1" - -> "1" moteurJeu.FrameStats : - <final> frameStats
gameLaby.laby.LabyJeu "0..*" - -> "1" gameLaby.laby.Labyrinthe : - laby
gameLaby.laby.LabyJeu "1" - -> "1" gameLaby.laby.Perso : - perso
gameLaby.laby.LabyDessin "1" - -> "1" gameLaby.laby.LabyJeu : - lab

@enduml

PlantUML version 1.2022.5(Sat Apr 30 12:55:52 CEST 2022)
(GPL source distribution)
Java Runtime: OpenJDK Runtime Environment
JVM: OpenJDK 64-Bit Server VM
Default Encoding: Cp1252
Language: fr
Country: FR
--></g></svg>