<?xml version="1.0" encoding="UTF-8" standalone="no"?><svg xmlns="http://www.w3.org/2000/svg" xmlns:xlink="http://www.w3.org/1999/xlink" contentStyleType="text/css" height="194px" preserveAspectRatio="none" style="width:472px;height:194px;background:#FFFFFF;" version="1.1" viewBox="0 0 472 194" width="472px" zoomAndPan="magnify"><defs/><g><rect fill="#FFFFFF" height="59.6094" style="stroke:#181818;stroke-width:1.0;" width="10" x="223.5" y="79.9609"/><line style="stroke:#181818;stroke-width:0.5;stroke-dasharray:5.0,5.0;" x1="80" x2="80" y1="37.6094" y2="157.5703"/><line style="stroke:#181818;stroke-width:0.5;stroke-dasharray:5.0,5.0;" x1="228" x2="228" y1="78.9141" y2="157.5703"/><rect fill="#E2E2F0" height="31.6094" rx="2.5" ry="2.5" style="stroke:#181818;stroke-width:0.5;" width="150" x="5" y="5"/><text fill="#000000" font-family="sans-serif" font-size="14" lengthAdjust="spacing" textLength="136" x="12" y="26.5332">moteurJeu:MoteurJeu</text><rect fill="#E2E2F0" height="31.6094" rx="2.5" ry="2.5" style="stroke:#181818;stroke-width:0.5;" width="150" x="5" y="156.5703"/><text fill="#000000" font-family="sans-serif" font-size="14" lengthAdjust="spacing" textLength="136" x="12" y="178.1035">moteurJeu:MoteurJeu</text><rect fill="#E2E2F0" height="31.6094" rx="2.5" ry="2.5" style="stroke:#181818;stroke-width:0.5;" width="103" x="177" y="156.5703"/><text fill="#000000" font-family="sans-serif" font-size="14" lengthAdjust="spacing" textLength="89" x="184" y="178.1035">clavier:Clavier</text><rect fill="#FFFFFF" height="59.6094" style="stroke:#181818;stroke-width:1.0;" width="10" x="223.5" y="79.9609"/><polygon fill="#181818" points="165,65.9609,175,69.9609,165,73.9609,169,69.9609" style="stroke:#181818;stroke-width:1.0;"/><line style="stroke:#181818;stroke-width:1.0;" x1="80" x2="171" y1="69.9609" y2="69.9609"/><text fill="#000000" font-family="sans-serif" font-size="13" lengthAdjust="spacing" textLength="73" x="87" y="65.1045">new Clavier()</text><rect fill="#E2E2F0" height="31.6094" rx="2.5" ry="2.5" style="stroke:#181818;stroke-width:0.5;" width="103" x="177" y="47.6094"/><text fill="#000000" font-family="sans-serif" font-size="14" lengthAdjust="spacing" textLength="89" x="184" y="69.1426">clavier:Clavier</text><line style="stroke:#181818;stroke-width:1.0;" x1="233.5" x2="275.5" y1="112.5703" y2="112.5703"/><line style="stroke:#181818;stroke-width:1.0;" x1="275.5" x2="275.5" y1="112.5703" y2="125.5703"/><line style="stroke:#181818;stroke-width:1.0;" x1="234.5" x2="275.5" y1="125.5703" y2="125.5703"/><polygon fill="#181818" points="244.5,121.5703,234.5,125.5703,244.5,129.5703,240.5,125.5703" style="stroke:#181818;stroke-width:1.0;"/><text fill="#000000" font-family="sans-serif" font-size="13" lengthAdjust="spacing" textLength="225" x="240.5" y="107.7139">configurerTouches("configTouches.txt")</text><polygon fill="#181818" points="91,135.5703,81,139.5703,91,143.5703,87,139.5703" style="stroke:#181818;stroke-width:1.0;"/><line style="stroke:#181818;stroke-width:1.0;stroke-dasharray:2.0,2.0;" x1="85" x2="227.5" y1="139.5703" y2="139.5703"/><!--MD5=[da7444bfde7a0e3c6b5c3c9c30a06f52]
@startuml

participant "moteurJeu:MoteurJeu" as moteurJeu

create "clavier:Clavier"

moteurJeu -> "clavier:Clavier" : new Clavier()
activate "clavier:Clavier"
"clavier:Clavier" -> "clavier:Clavier" : configurerTouches("configTouches.txt")
return

@enduml

PlantUML version 1.2022.5(Sat Apr 30 12:55:52 CEST 2022)
(GPL source distribution)
Java Runtime: OpenJDK Runtime Environment
JVM: OpenJDK 64-Bit Server VM
Default Encoding: Cp1252
Language: fr
Country: FR
--></g></svg>