<?xml version="1.0" encoding="UTF-8" standalone="no"?><svg xmlns="http://www.w3.org/2000/svg" xmlns:xlink="http://www.w3.org/1999/xlink" contentStyleType="text/css" height="1560px" preserveAspectRatio="none" style="width:1074px;height:1560px;background:#FFFFFF;" version="1.1" viewBox="0 0 1074 1560" width="1074px" zoomAndPan="magnify"><defs/><g><!--MD5=[697e110f9590970c7c0120cdc1a051d1]
cluster moteurJeu--><g id="cluster_moteurJeu"><path d="M8.5,139 L85.5,139 A3.75,3.75 0 0 1 88,141.5 L95,162.6094 L1064.5,162.6094 A2.5,2.5 0 0 1 1067,165.1094 L1067,742.5 A2.5,2.5 0 0 1 1064.5,745 L8.5,745 A2.5,2.5 0 0 1 6,742.5 L6,141.5 A2.5,2.5 0 0 1 8.5,139 " style="stroke:#000000;stroke-width:1.5;fill:none;"/><line style="stroke:#000000;stroke-width:1.5;fill:none;" x1="6" x2="95" y1="162.6094" y2="162.6094"/><text fill="#000000" font-family="sans-serif" font-size="14" font-weight="bold" lengthAdjust="spacing" textLength="76" x="10" y="155.5332">moteurJeu</text></g><!--MD5=[703d8294f503dec073b603f372d06e18]
cluster gameLaby.laby--><g id="cluster_gameLaby.laby"><path d="M579.5,778 L682.5,778 A3.75,3.75 0 0 1 685,780.5 L692,801.6094 L1046.5,801.6094 A2.5,2.5 0 0 1 1049,804.1094 L1049,1550.5 A2.5,2.5 0 0 1 1046.5,1553 L579.5,1553 A2.5,2.5 0 0 1 577,1550.5 L577,780.5 A2.5,2.5 0 0 1 579.5,778 " style="stroke:#000000;stroke-width:1.5;fill:none;"/><line style="stroke:#000000;stroke-width:1.5;fill:none;" x1="577" x2="692" y1="801.6094" y2="801.6094"/><text fill="#000000" font-family="sans-serif" font-size="14" font-weight="bold" lengthAdjust="spacing" textLength="102" x="581" y="794.5332">gameLaby.laby</text></g><!--MD5=[315bf7c36bcdbdaee5bb7549ab6e8767]
cluster javafx.application--><g id="cluster_javafx.application"><path d="M470.5,6 L594.5,6 A3.75,3.75 0 0 1 597,8.5 L604,29.6094 L604.5,29.6094 A2.5,2.5 0 0 1 607,32.1094 L607,103.5 A2.5,2.5 0 0 1 604.5,106 L470.5,106 A2.5,2.5 0 0 1 468,103.5 L468,8.5 A2.5,2.5 0 0 1 470.5,6 " style="stroke:#000000;stroke-width:1.5;fill:none;"/><line style="stroke:#000000;stroke-width:1.5;fill:none;" x1="468" x2="604" y1="29.6094" y2="29.6094"/><text fill="#000000" font-family="sans-serif" font-size="14" font-weight="bold" lengthAdjust="spacing" textLength="123" x="472" y="22.5332">javafx.application</text></g><!--MD5=[f85c18983d1f3d9e1cdc2a6fcabcc18e]
class moteurJeu.Clavier--><g id="elem_moteurJeu.Clavier"><rect codeLine="7" fill="#FFA500" height="270.0156" id="moteurJeu.Clavier" rx="2.5" ry="2.5" style="stroke:#000000;stroke-width:0.5;" width="235" x="22.5" y="459"/><ellipse cx="105.75" cy="480.3516" fill="#ADD1B2" rx="11" ry="11" style="stroke:#181818;stroke-width:1.0;"/><path d="M107.75,476.8516 Q107.9531,476.3516 108.1875,476.1016 Q108.4219,475.8516 108.6875,475.8516 Q109.1563,475.8516 109.4531,476.1328 Q109.75,476.4141 109.75,477.0703 L109.75,478.6328 Q109.75,479.2891 109.4688,479.5703 Q109.1875,479.8516 108.75,479.8516 Q108.3594,479.8516 108.1094,479.6797 Q107.8594,479.5078 107.75,479.0547 Q107.7031,478.7422 107.5313,478.5703 Q107.2188,478.2422 106.6563,478.0547 Q106.0938,477.8516 105.5313,477.8516 Q104.8281,477.8516 104.2344,478.1328 Q103.6563,478.4141 103.2031,479.0391 Q102.75,479.6641 102.75,480.5234 L102.75,481.4453 Q102.75,482.4766 103.5938,483.1641 Q104.4375,483.8516 105.9375,483.8516 Q106.8281,483.8516 107.4531,483.6484 Q107.8125,483.5391 108.2188,483.1797 Q108.4844,482.9766 108.625,482.9141 Q108.7656,482.8516 108.9375,482.8516 Q109.2656,482.8516 109.5,483.1172 Q109.75,483.3672 109.75,483.7266 Q109.75,484.0703 109.4063,484.4766 Q108.9063,485.0703 108.1094,485.3984 Q107.0625,485.8516 105.7813,485.8516 Q104.2813,485.8516 103.0781,485.2578 Q102.1094,484.7891 101.4219,483.7734 Q100.75,482.7578 100.75,481.5547 L100.75,480.4609 Q100.75,479.2109 101.3438,478.1172 Q101.9531,477.0234 103,476.4453 Q104.0625,475.8516 105.25,475.8516 Q105.9688,475.8516 106.5938,476.1016 Q107.2188,476.3516 107.75,476.8516 Z " fill="#000000"/><text fill="#000000" font-family="sans-serif" font-size="12" font-style="italic" lengthAdjust="spacing" textLength="64" x="124.25" y="476.457">«Nouveau»</text><text fill="#000000" font-family="sans-serif" font-size="14" lengthAdjust="spacing" textLength="44" x="134.25" y="493.627">Clavier</text><line style="stroke:#000000;stroke-width:0.5;" x1="23.5" x2="256.5" y1="501.7031" y2="501.7031"/><ellipse cx="33.5" cy="512.7031" fill="none" rx="3" ry="3" style="stroke:#038048;stroke-width:1.0;"/><text fill="#000000" font-family="sans-serif" font-size="14" lengthAdjust="spacing" textLength="95" x="42.5" y="520.2363">haut  : boolean</text><ellipse cx="33.5" cy="530.3125" fill="none" rx="3" ry="3" style="stroke:#038048;stroke-width:1.0;"/><text fill="#000000" font-family="sans-serif" font-size="14" lengthAdjust="spacing" textLength="86" x="42.5" y="537.8457">bas : boolean</text><ellipse cx="33.5" cy="547.9219" fill="none" rx="3" ry="3" style="stroke:#038048;stroke-width:1.0;"/><text fill="#000000" font-family="sans-serif" font-size="14" lengthAdjust="spacing" textLength="110" x="42.5" y="555.4551">gauche : boolean</text><ellipse cx="33.5" cy="565.5313" fill="none" rx="3" ry="3" style="stroke:#038048;stroke-width:1.0;"/><text fill="#000000" font-family="sans-serif" font-size="14" lengthAdjust="spacing" textLength="91" x="42.5" y="573.0645">droit : boolean</text><text fill="#000000" font-family="sans-serif" font-size="14" lengthAdjust="spacing" textLength="4" x="42.5" y="590.6738"> </text><rect fill="none" height="6" style="stroke:#C82930;stroke-width:1.0;" width="6" x="30.5" y="597.75"/><text fill="#000000" font-family="sans-serif" font-size="14" lengthAdjust="spacing" textLength="142" x="42.5" y="608.2832">toucheHaut : KeyCode</text><rect fill="none" height="6" style="stroke:#C82930;stroke-width:1.0;" width="6" x="30.5" y="615.3594"/><text fill="#000000" font-family="sans-serif" font-size="14" lengthAdjust="spacing" textLength="137" x="42.5" y="625.8926">toucheBas : KeyCode</text><rect fill="none" height="6" style="stroke:#C82930;stroke-width:1.0;" width="6" x="30.5" y="632.9688"/><text fill="#000000" font-family="sans-serif" font-size="14" lengthAdjust="spacing" textLength="163" x="42.5" y="643.502">toucheGauche : KeyCode</text><rect fill="none" height="6" style="stroke:#C82930;stroke-width:1.0;" width="6" x="30.5" y="650.5781"/><text fill="#000000" font-family="sans-serif" font-size="14" lengthAdjust="spacing" textLength="151" x="42.5" y="661.1113">toucheDroite : KeyCode</text><line style="stroke:#000000;stroke-width:0.5;" x1="23.5" x2="256.5" y1="668.1875" y2="668.1875"/><ellipse cx="33.5" cy="679.1875" fill="#84BE84" rx="3" ry="3" style="stroke:#038048;stroke-width:1.0;"/><text fill="#000000" font-family="sans-serif" font-size="14" lengthAdjust="spacing" textLength="209" x="42.5" y="686.7207">appuyerTouche(KeyEvent event)</text><ellipse cx="33.5" cy="696.7969" fill="#84BE84" rx="3" ry="3" style="stroke:#038048;stroke-width:1.0;"/><text fill="#000000" font-family="sans-serif" font-size="14" lengthAdjust="spacing" textLength="209" x="42.5" y="704.3301">relacherTouche(KeyEvent event)</text><ellipse cx="33.5" cy="714.4063" fill="#84BE84" rx="3" ry="3" style="stroke:#038048;stroke-width:1.0;"/><text fill="#000000" font-family="sans-serif" font-size="14" lengthAdjust="spacing" textLength="188" x="42.5" y="721.9395">configurerTouches(String file)</text></g><!--MD5=[cce898caa4d5f78016fa5c4b914660c0]
class moteurJeu.FrameStats--><g id="elem_moteurJeu.FrameStats"><rect codeLine="24" fill="#F1F1F1" height="206.4844" id="moteurJeu.FrameStats" rx="2.5" ry="2.5" style="stroke:#181818;stroke-width:0.5;" width="270" x="293" y="491"/><ellipse cx="387.25" cy="507" fill="#ADD1B2" rx="11" ry="11" style="stroke:#181818;stroke-width:1.0;"/><path d="M389.25,503.5 Q389.4531,503 389.6875,502.75 Q389.9219,502.5 390.1875,502.5 Q390.6563,502.5 390.9531,502.7813 Q391.25,503.0625 391.25,503.7188 L391.25,505.2813 Q391.25,505.9375 390.9688,506.2188 Q390.6875,506.5 390.25,506.5 Q389.8594,506.5 389.6094,506.3281 Q389.3594,506.1563 389.25,505.7031 Q389.2031,505.3906 389.0313,505.2188 Q388.7188,504.8906 388.1563,504.7031 Q387.5938,504.5 387.0313,504.5 Q386.3281,504.5 385.7344,504.7813 Q385.1563,505.0625 384.7031,505.6875 Q384.25,506.3125 384.25,507.1719 L384.25,508.0938 Q384.25,509.125 385.0938,509.8125 Q385.9375,510.5 387.4375,510.5 Q388.3281,510.5 388.9531,510.2969 Q389.3125,510.1875 389.7188,509.8281 Q389.9844,509.625 390.125,509.5625 Q390.2656,509.5 390.4375,509.5 Q390.7656,509.5 391,509.7656 Q391.25,510.0156 391.25,510.375 Q391.25,510.7188 390.9063,511.125 Q390.4063,511.7188 389.6094,512.0469 Q388.5625,512.5 387.2813,512.5 Q385.7813,512.5 384.5781,511.9063 Q383.6094,511.4375 382.9219,510.4219 Q382.25,509.4063 382.25,508.2031 L382.25,507.1094 Q382.25,505.8594 382.8438,504.7656 Q383.4531,503.6719 384.5,503.0938 Q385.5625,502.5 386.75,502.5 Q387.4688,502.5 388.0938,502.75 Q388.7188,503 389.25,503.5 Z " fill="#000000"/><text fill="#000000" font-family="sans-serif" font-size="14" lengthAdjust="spacing" textLength="73" x="407.75" y="512.7285">FrameStats</text><line style="stroke:#181818;stroke-width:0.5;" x1="294" x2="562" y1="523" y2="523"/><rect fill="none" height="6" style="stroke:#C82930;stroke-width:1.0;" width="6" x="301" y="531"/><text fill="#000000" font-family="sans-serif" font-size="14" lengthAdjust="spacing" textLength="105" x="313" y="541.5332">long frameCount</text><rect fill="none" height="6" style="stroke:#C82930;stroke-width:1.0;" width="6" x="301" y="548.6094"/><text fill="#000000" font-family="sans-serif" font-size="14" lengthAdjust="spacing" textLength="169" x="313" y="559.1426">double meanFrameInterval</text><rect fill="none" height="6" style="stroke:#C82930;stroke-width:1.0;" width="6" x="301" y="566.2188"/><text fill="#000000" font-family="sans-serif" font-size="14" lengthAdjust="spacing" textLength="181" x="313" y="576.752">ReadOnlyStringWrapper text</text><line style="stroke:#181818;stroke-width:0.5;" x1="294" x2="562" y1="583.8281" y2="583.8281"/><ellipse cx="304" cy="594.8281" fill="#84BE84" rx="3" ry="3" style="stroke:#038048;stroke-width:1.0;"/><text fill="#000000" font-family="sans-serif" font-size="14" lengthAdjust="spacing" textLength="140" x="313" y="602.3613">long getFrameCount()</text><ellipse cx="304" cy="612.4375" fill="#84BE84" rx="3" ry="3" style="stroke:#038048;stroke-width:1.0;"/><text fill="#000000" font-family="sans-serif" font-size="14" lengthAdjust="spacing" textLength="199" x="313" y="619.9707">double getMeanFrameInterval()</text><ellipse cx="304" cy="630.0469" fill="#84BE84" rx="3" ry="3" style="stroke:#038048;stroke-width:1.0;"/><text fill="#000000" font-family="sans-serif" font-size="14" lengthAdjust="spacing" textLength="132" x="313" y="637.5801">void addFrame(long)</text><ellipse cx="304" cy="647.6563" fill="#84BE84" rx="3" ry="3" style="stroke:#038048;stroke-width:1.0;"/><text fill="#000000" font-family="sans-serif" font-size="14" lengthAdjust="spacing" textLength="98" x="313" y="655.1895">String getText()</text><ellipse cx="304" cy="665.2656" fill="#84BE84" rx="3" ry="3" style="stroke:#038048;stroke-width:1.0;"/><text fill="#000000" font-family="sans-serif" font-size="14" lengthAdjust="spacing" textLength="244" x="313" y="672.7988">ReadOnlyStringProperty textProperty()</text><ellipse cx="304" cy="682.875" fill="#84BE84" rx="3" ry="3" style="stroke:#038048;stroke-width:1.0;"/><text fill="#000000" font-family="sans-serif" font-size="14" lengthAdjust="spacing" textLength="100" x="313" y="690.4082">String toString()</text></g><!--MD5=[591f6b9f911fedc8644b3efc1cca87dd]
class moteurJeu.DessinJeu--><g id="elem_moteurJeu.DessinJeu"><rect codeLine="53" fill="#F1F1F1" height="65.6094" id="moteurJeu.DessinJeu" rx="2.5" ry="2.5" style="stroke:#181818;stroke-width:0.5;" width="216" x="598" y="561"/><ellipse cx="668.75" cy="577" fill="#B4A7E5" rx="11" ry="11" style="stroke:#181818;stroke-width:1.0;"/><path d="M669.75,574 L669.75,580 L671.75,580 L672.2344,580 L672.75,580.625 L672.75,581 L672.75,581.375 L672.2344,582 L671.75,582 L665.75,582 L665.2656,582 L664.75,581.375 L664.75,581 L664.75,580.625 L665.2656,580 L665.75,580 L667.75,580 L667.75,574 L665.75,574 L665.2656,574 L664.75,573.375 L664.75,573 L664.75,572.625 L665.2656,572 L665.75,572 L671.75,572 L672.2344,572 L672.75,572.625 L672.75,573 L672.75,573.375 L672.2344,574 L671.75,574 L669.75,574 Z " fill="#000000"/><text fill="#000000" font-family="sans-serif" font-size="14" font-style="italic" lengthAdjust="spacing" textLength="66" x="689.25" y="582.7285">DessinJeu</text><line style="stroke:#181818;stroke-width:0.5;" x1="599" x2="813" y1="593" y2="593"/><line style="stroke:#181818;stroke-width:0.5;" x1="599" x2="813" y1="601" y2="601"/><polygon fill="#4177AF" points="609,608,605,614,613,614" style="stroke:#1963A0;stroke-width:1.0;"/><text fill="#000000" font-family="sans-serif" font-size="14" lengthAdjust="spacing" textLength="190" x="618" y="619.5332">void dessinerJeu(Jeu,Canvas)</text></g><!--MD5=[0566a5659c6ce825b2201c810d2b61a7]
class moteurJeu.Jeu--><g id="elem_moteurJeu.Jeu"><rect codeLine="69" fill="#F1F1F1" height="100.8281" id="moteurJeu.Jeu" rx="2.5" ry="2.5" style="stroke:#181818;stroke-width:0.5;" width="201" x="849.5" y="543.5"/><ellipse cx="934.25" cy="559.5" fill="#B4A7E5" rx="11" ry="11" style="stroke:#181818;stroke-width:1.0;"/><path d="M935.25,556.5 L935.25,562.5 L937.25,562.5 L937.7344,562.5 L938.25,563.125 L938.25,563.5 L938.25,563.875 L937.7344,564.5 L937.25,564.5 L931.25,564.5 L930.7656,564.5 L930.25,563.875 L930.25,563.5 L930.25,563.125 L930.7656,562.5 L931.25,562.5 L933.25,562.5 L933.25,556.5 L931.25,556.5 L930.7656,556.5 L930.25,555.875 L930.25,555.5 L930.25,555.125 L930.7656,554.5 L931.25,554.5 L937.25,554.5 L937.7344,554.5 L938.25,555.125 L938.25,555.5 L938.25,555.875 L937.7344,556.5 L937.25,556.5 L935.25,556.5 Z " fill="#000000"/><text fill="#000000" font-family="sans-serif" font-size="14" font-style="italic" lengthAdjust="spacing" textLength="23" x="954.75" y="565.2285">Jeu</text><line style="stroke:#181818;stroke-width:0.5;" x1="850.5" x2="1049.5" y1="575.5" y2="575.5"/><line style="stroke:#181818;stroke-width:0.5;" x1="850.5" x2="1049.5" y1="583.5" y2="583.5"/><polygon fill="#4177AF" points="860.5,590.5,856.5,596.5,864.5,596.5" style="stroke:#1963A0;stroke-width:1.0;"/><text fill="#000000" font-family="sans-serif" font-size="14" lengthAdjust="spacing" textLength="175" x="869.5" y="602.0332">void update(double,Clavier)</text><polygon fill="#4177AF" points="860.5,608.1094,856.5,614.1094,864.5,614.1094" style="stroke:#1963A0;stroke-width:1.0;"/><text fill="#000000" font-family="sans-serif" font-size="14" lengthAdjust="spacing" textLength="58" x="869.5" y="619.6426">void init()</text><polygon fill="#4177AF" points="860.5,625.7188,856.5,631.7188,864.5,631.7188" style="stroke:#1963A0;stroke-width:1.0;"/><text fill="#000000" font-family="sans-serif" font-size="14" lengthAdjust="spacing" textLength="113" x="869.5" y="637.252">boolean etreFini()</text></g><!--MD5=[59ac0dae74f78a62dbac4bde46dcb155]
class moteurJeu.MoteurJeu--><g id="elem_moteurJeu.MoteurJeu"><rect codeLine="83" fill="#F1F1F1" height="206.4844" id="moteurJeu.MoteurJeu" rx="2.5" ry="2.5" style="stroke:#181818;stroke-width:0.5;" width="209" x="432.5" y="175"/><ellipse cx="499.75" cy="191" fill="#ADD1B2" rx="11" ry="11" style="stroke:#181818;stroke-width:1.0;"/><path d="M501.75,187.5 Q501.9531,187 502.1875,186.75 Q502.4219,186.5 502.6875,186.5 Q503.1563,186.5 503.4531,186.7813 Q503.75,187.0625 503.75,187.7188 L503.75,189.2813 Q503.75,189.9375 503.4688,190.2188 Q503.1875,190.5 502.75,190.5 Q502.3594,190.5 502.1094,190.3281 Q501.8594,190.1563 501.75,189.7031 Q501.7031,189.3906 501.5313,189.2188 Q501.2188,188.8906 500.6563,188.7031 Q500.0938,188.5 499.5313,188.5 Q498.8281,188.5 498.2344,188.7813 Q497.6563,189.0625 497.2031,189.6875 Q496.75,190.3125 496.75,191.1719 L496.75,192.0938 Q496.75,193.125 497.5938,193.8125 Q498.4375,194.5 499.9375,194.5 Q500.8281,194.5 501.4531,194.2969 Q501.8125,194.1875 502.2188,193.8281 Q502.4844,193.625 502.625,193.5625 Q502.7656,193.5 502.9375,193.5 Q503.2656,193.5 503.5,193.7656 Q503.75,194.0156 503.75,194.375 Q503.75,194.7188 503.4063,195.125 Q502.9063,195.7188 502.1094,196.0469 Q501.0625,196.5 499.7813,196.5 Q498.2813,196.5 497.0781,195.9063 Q496.1094,195.4375 495.4219,194.4219 Q494.75,193.4063 494.75,192.2031 L494.75,191.1094 Q494.75,189.8594 495.3438,188.7656 Q495.9531,187.6719 497,187.0938 Q498.0625,186.5 499.25,186.5 Q499.9688,186.5 500.5938,186.75 Q501.2188,187 501.75,187.5 Z " fill="#000000"/><text fill="#000000" font-family="sans-serif" font-size="14" lengthAdjust="spacing" textLength="66" x="520.25" y="196.7285">MoteurJeu</text><line style="stroke:#181818;stroke-width:0.5;" x1="433.5" x2="640.5" y1="207" y2="207"/><rect fill="none" height="6" style="stroke:#C82930;stroke-width:1.0;" width="6" x="440.5" y="215"/><text fill="#000000" font-family="sans-serif" font-size="14" lengthAdjust="spacing" text-decoration="underline" textLength="74" x="452.5" y="225.5332">double FPS</text><rect fill="none" height="6" style="stroke:#C82930;stroke-width:1.0;" width="6" x="440.5" y="232.6094"/><text fill="#000000" font-family="sans-serif" font-size="14" lengthAdjust="spacing" text-decoration="underline" textLength="111" x="452.5" y="243.1426">double dureeFPS</text><rect fill="none" height="6" style="stroke:#C82930;stroke-width:1.0;" width="6" x="440.5" y="250.2188"/><text fill="#000000" font-family="sans-serif" font-size="14" lengthAdjust="spacing" text-decoration="underline" textLength="91" x="452.5" y="260.752">double WIDTH</text><rect fill="none" height="6" style="stroke:#C82930;stroke-width:1.0;" width="6" x="440.5" y="267.8281"/><text fill="#000000" font-family="sans-serif" font-size="14" lengthAdjust="spacing" text-decoration="underline" textLength="97" x="452.5" y="278.3613">double HEIGHT</text><line style="stroke:#181818;stroke-width:0.5;" x1="433.5" x2="640.5" y1="285.4375" y2="285.4375"/><ellipse cx="443.5" cy="296.4375" fill="#84BE84" rx="3" ry="3" style="stroke:#038048;stroke-width:1.0;"/><text fill="#000000" font-family="sans-serif" font-size="14" lengthAdjust="spacing" text-decoration="underline" textLength="173" x="452.5" y="303.9707">void launch(Jeu,DessinJeu)</text><ellipse cx="443.5" cy="314.0469" fill="#84BE84" rx="3" ry="3" style="stroke:#038048;stroke-width:1.0;"/><text fill="#000000" font-family="sans-serif" font-size="14" lengthAdjust="spacing" text-decoration="underline" textLength="101" x="452.5" y="321.5801">void setFPS(int)</text><ellipse cx="443.5" cy="331.6563" fill="#84BE84" rx="3" ry="3" style="stroke:#038048;stroke-width:1.0;"/><text fill="#000000" font-family="sans-serif" font-size="14" lengthAdjust="spacing" text-decoration="underline" textLength="183" x="452.5" y="339.1895">void setTaille(double,double)</text><ellipse cx="443.5" cy="349.2656" fill="#84BE84" rx="3" ry="3" style="stroke:#038048;stroke-width:1.0;"/><text fill="#000000" font-family="sans-serif" font-size="14" lengthAdjust="spacing" textLength="105" x="452.5" y="356.7988">void start(Stage)</text><rect fill="#F24D5C" height="6" style="stroke:#C82930;stroke-width:1.0;" width="6" x="440.5" y="363.875"/><text fill="#000000" font-family="sans-serif" font-size="14" lengthAdjust="spacing" textLength="178" x="452.5" y="374.4082">void startAnimation(Canvas)</text></g><!--MD5=[2bf042a19b7caec9f380341c620cec60]
class gameLaby.laby.Labyrinthe--><g id="elem_gameLaby.laby.Labyrinthe"><rect codeLine="35" fill="#F1F1F1" height="329.75" id="gameLaby.laby.Labyrinthe" rx="2.5" ry="2.5" style="stroke:#181818;stroke-width:0.5;" width="205" x="593.5" y="1207"/><ellipse cx="658.25" cy="1223" fill="#ADD1B2" rx="11" ry="11" style="stroke:#181818;stroke-width:1.0;"/><path d="M660.25,1219.5 Q660.4531,1219 660.6875,1218.75 Q660.9219,1218.5 661.1875,1218.5 Q661.6563,1218.5 661.9531,1218.7813 Q662.25,1219.0625 662.25,1219.7188 L662.25,1221.2813 Q662.25,1221.9375 661.9688,1222.2188 Q661.6875,1222.5 661.25,1222.5 Q660.8594,1222.5 660.6094,1222.3281 Q660.3594,1222.1563 660.25,1221.7031 Q660.2031,1221.3906 660.0313,1221.2188 Q659.7188,1220.8906 659.1563,1220.7031 Q658.5938,1220.5 658.0313,1220.5 Q657.3281,1220.5 656.7344,1220.7813 Q656.1563,1221.0625 655.7031,1221.6875 Q655.25,1222.3125 655.25,1223.1719 L655.25,1224.0938 Q655.25,1225.125 656.0938,1225.8125 Q656.9375,1226.5 658.4375,1226.5 Q659.3281,1226.5 659.9531,1226.2969 Q660.3125,1226.1875 660.7188,1225.8281 Q660.9844,1225.625 661.125,1225.5625 Q661.2656,1225.5 661.4375,1225.5 Q661.7656,1225.5 662,1225.7656 Q662.25,1226.0156 662.25,1226.375 Q662.25,1226.7188 661.9063,1227.125 Q661.4063,1227.7188 660.6094,1228.0469 Q659.5625,1228.5 658.2813,1228.5 Q656.7813,1228.5 655.5781,1227.9063 Q654.6094,1227.4375 653.9219,1226.4219 Q653.25,1225.4063 653.25,1224.2031 L653.25,1223.1094 Q653.25,1221.8594 653.8438,1220.7656 Q654.4531,1219.6719 655.5,1219.0938 Q656.5625,1218.5 657.75,1218.5 Q658.4688,1218.5 659.0938,1218.75 Q659.7188,1219 660.25,1219.5 Z " fill="#000000"/><text fill="#000000" font-family="sans-serif" font-size="14" lengthAdjust="spacing" textLength="67" x="678.75" y="1228.7285">Labyrinthe</text><line style="stroke:#181818;stroke-width:0.5;" x1="594.5" x2="797.5" y1="1239" y2="1239"/><ellipse cx="604.5" cy="1250" fill="none" rx="3" ry="3" style="stroke:#038048;stroke-width:1.0;"/><text fill="#000000" font-family="sans-serif" font-size="14" lengthAdjust="spacing" text-decoration="underline" textLength="62" x="613.5" y="1257.5332">char MUR</text><ellipse cx="604.5" cy="1267.6094" fill="none" rx="3" ry="3" style="stroke:#038048;stroke-width:1.0;"/><text fill="#000000" font-family="sans-serif" font-size="14" lengthAdjust="spacing" text-decoration="underline" textLength="47" x="613.5" y="1275.1426">char PJ</text><ellipse cx="604.5" cy="1285.2188" fill="none" rx="3" ry="3" style="stroke:#038048;stroke-width:1.0;"/><text fill="#000000" font-family="sans-serif" font-size="14" lengthAdjust="spacing" text-decoration="underline" textLength="63" x="613.5" y="1292.752">char VIDE</text><ellipse cx="604.5" cy="1302.8281" fill="none" rx="3" ry="3" style="stroke:#038048;stroke-width:1.0;"/><text fill="#000000" font-family="sans-serif" font-size="14" lengthAdjust="spacing" text-decoration="underline" textLength="77" x="613.5" y="1310.3613">String HAUT</text><ellipse cx="604.5" cy="1320.4375" fill="none" rx="3" ry="3" style="stroke:#038048;stroke-width:1.0;"/><text fill="#000000" font-family="sans-serif" font-size="14" lengthAdjust="spacing" text-decoration="underline" textLength="68" x="613.5" y="1327.9707">String BAS</text><ellipse cx="604.5" cy="1338.0469" fill="none" rx="3" ry="3" style="stroke:#038048;stroke-width:1.0;"/><text fill="#000000" font-family="sans-serif" font-size="14" lengthAdjust="spacing" text-decoration="underline" textLength="98" x="613.5" y="1345.5801">String GAUCHE</text><ellipse cx="604.5" cy="1355.6563" fill="none" rx="3" ry="3" style="stroke:#038048;stroke-width:1.0;"/><text fill="#000000" font-family="sans-serif" font-size="14" lengthAdjust="spacing" text-decoration="underline" textLength="93" x="613.5" y="1363.1895">String DROITE</text><ellipse cx="604.5" cy="1373.2656" fill="none" rx="3" ry="3" style="stroke:#038048;stroke-width:1.0;"/><text fill="#000000" font-family="sans-serif" font-size="14" lengthAdjust="spacing" textLength="52" x="613.5" y="1380.7988">Perso pj</text><ellipse cx="604.5" cy="1390.875" fill="none" rx="3" ry="3" style="stroke:#038048;stroke-width:1.0;"/><text fill="#000000" font-family="sans-serif" font-size="14" lengthAdjust="spacing" textLength="102" x="613.5" y="1398.4082">boolean[][] murs</text><line style="stroke:#181818;stroke-width:0.5;" x1="594.5" x2="797.5" y1="1405.4844" y2="1405.4844"/><ellipse cx="604.5" cy="1416.4844" fill="#84BE84" rx="3" ry="3" style="stroke:#038048;stroke-width:1.0;"/><text fill="#000000" font-family="sans-serif" font-size="14" lengthAdjust="spacing" textLength="177" x="613.5" y="1424.0176">«Create» Labyrinthe(String)</text><polygon fill="#4177AF" points="604.5,1430.0938,600.5,1436.0938,608.5,1436.0938" style="stroke:#1963A0;stroke-width:1.0;"/><text fill="#000000" font-family="sans-serif" font-size="14" lengthAdjust="spacing" text-decoration="underline" textLength="179" x="613.5" y="1441.627">int[] getSuivant(int,int,String)</text><ellipse cx="604.5" cy="1451.7031" fill="#84BE84" rx="3" ry="3" style="stroke:#038048;stroke-width:1.0;"/><text fill="#000000" font-family="sans-serif" font-size="14" lengthAdjust="spacing" textLength="169" x="613.5" y="1459.2363">void deplacerPerso(String)</text><ellipse cx="604.5" cy="1469.3125" fill="#84BE84" rx="3" ry="3" style="stroke:#038048;stroke-width:1.0;"/><text fill="#000000" font-family="sans-serif" font-size="14" lengthAdjust="spacing" textLength="113" x="613.5" y="1476.8457">boolean etreFini()</text><ellipse cx="604.5" cy="1486.9219" fill="#84BE84" rx="3" ry="3" style="stroke:#038048;stroke-width:1.0;"/><text fill="#000000" font-family="sans-serif" font-size="14" lengthAdjust="spacing" textLength="102" x="613.5" y="1494.4551">int getLengthY()</text><ellipse cx="604.5" cy="1504.5313" fill="#84BE84" rx="3" ry="3" style="stroke:#038048;stroke-width:1.0;"/><text fill="#000000" font-family="sans-serif" font-size="14" lengthAdjust="spacing" textLength="93" x="613.5" y="1512.0645">int getLength()</text><ellipse cx="604.5" cy="1522.1406" fill="#84BE84" rx="3" ry="3" style="stroke:#038048;stroke-width:1.0;"/><text fill="#000000" font-family="sans-serif" font-size="14" lengthAdjust="spacing" textLength="143" x="613.5" y="1529.6738">boolean getMur(int,int)</text></g><!--MD5=[5c1058acac23f901acb52fa6a087d6f8]
class gameLaby.laby.LabyDessin--><g id="elem_gameLaby.laby.LabyDessin"><rect codeLine="56" fill="#F1F1F1" height="83.2188" id="gameLaby.laby.LabyDessin" rx="2.5" ry="2.5" style="stroke:#181818;stroke-width:0.5;" width="216" x="629" y="814"/><ellipse cx="695.75" cy="830" fill="#ADD1B2" rx="11" ry="11" style="stroke:#181818;stroke-width:1.0;"/><path d="M697.75,826.5 Q697.9531,826 698.1875,825.75 Q698.4219,825.5 698.6875,825.5 Q699.1563,825.5 699.4531,825.7813 Q699.75,826.0625 699.75,826.7188 L699.75,828.2813 Q699.75,828.9375 699.4688,829.2188 Q699.1875,829.5 698.75,829.5 Q698.3594,829.5 698.1094,829.3281 Q697.8594,829.1563 697.75,828.7031 Q697.7031,828.3906 697.5313,828.2188 Q697.2188,827.8906 696.6563,827.7031 Q696.0938,827.5 695.5313,827.5 Q694.8281,827.5 694.2344,827.7813 Q693.6563,828.0625 693.2031,828.6875 Q692.75,829.3125 692.75,830.1719 L692.75,831.0938 Q692.75,832.125 693.5938,832.8125 Q694.4375,833.5 695.9375,833.5 Q696.8281,833.5 697.4531,833.2969 Q697.8125,833.1875 698.2188,832.8281 Q698.4844,832.625 698.625,832.5625 Q698.7656,832.5 698.9375,832.5 Q699.2656,832.5 699.5,832.7656 Q699.75,833.0156 699.75,833.375 Q699.75,833.7188 699.4063,834.125 Q698.9063,834.7188 698.1094,835.0469 Q697.0625,835.5 695.7813,835.5 Q694.2813,835.5 693.0781,834.9063 Q692.1094,834.4375 691.4219,833.4219 Q690.75,832.4063 690.75,831.2031 L690.75,830.1094 Q690.75,828.8594 691.3438,827.7656 Q691.9531,826.6719 693,826.0938 Q694.0625,825.5 695.25,825.5 Q695.9688,825.5 696.5938,825.75 Q697.2188,826 697.75,826.5 Z " fill="#000000"/><text fill="#000000" font-family="sans-serif" font-size="14" lengthAdjust="spacing" textLength="74" x="716.25" y="835.7285">LabyDessin</text><line style="stroke:#181818;stroke-width:0.5;" x1="630" x2="844" y1="846" y2="846"/><line style="stroke:#181818;stroke-width:0.5;" x1="630" x2="844" y1="854" y2="854"/><polygon fill="#4177AF" points="640,861,636,867,644,867" style="stroke:#1963A0;stroke-width:1.0;"/><text fill="#000000" font-family="sans-serif" font-size="14" lengthAdjust="spacing" textLength="127" x="649" y="872.5332">char getChar(int,int)</text><ellipse cx="640" cy="882.6094" fill="#84BE84" rx="3" ry="3" style="stroke:#038048;stroke-width:1.0;"/><text fill="#000000" font-family="sans-serif" font-size="14" lengthAdjust="spacing" textLength="190" x="649" y="890.1426">void dessinerJeu(Jeu,Canvas)</text></g><!--MD5=[7518963d21009f721e2589a0224588fc]
class gameLaby.laby.LabyJeu--><g id="elem_gameLaby.laby.LabyJeu"><rect codeLine="61" fill="#F1F1F1" height="153.6563" id="gameLaby.laby.LabyJeu" rx="2.5" ry="2.5" style="stroke:#181818;stroke-width:0.5;" width="201" x="663.5" y="975"/><ellipse cx="733.25" cy="991" fill="#ADD1B2" rx="11" ry="11" style="stroke:#181818;stroke-width:1.0;"/><path d="M735.25,987.5 Q735.4531,987 735.6875,986.75 Q735.9219,986.5 736.1875,986.5 Q736.6563,986.5 736.9531,986.7813 Q737.25,987.0625 737.25,987.7188 L737.25,989.2813 Q737.25,989.9375 736.9688,990.2188 Q736.6875,990.5 736.25,990.5 Q735.8594,990.5 735.6094,990.3281 Q735.3594,990.1563 735.25,989.7031 Q735.2031,989.3906 735.0313,989.2188 Q734.7188,988.8906 734.1563,988.7031 Q733.5938,988.5 733.0313,988.5 Q732.3281,988.5 731.7344,988.7813 Q731.1563,989.0625 730.7031,989.6875 Q730.25,990.3125 730.25,991.1719 L730.25,992.0938 Q730.25,993.125 731.0938,993.8125 Q731.9375,994.5 733.4375,994.5 Q734.3281,994.5 734.9531,994.2969 Q735.3125,994.1875 735.7188,993.8281 Q735.9844,993.625 736.125,993.5625 Q736.2656,993.5 736.4375,993.5 Q736.7656,993.5 737,993.7656 Q737.25,994.0156 737.25,994.375 Q737.25,994.7188 736.9063,995.125 Q736.4063,995.7188 735.6094,996.0469 Q734.5625,996.5 733.2813,996.5 Q731.7813,996.5 730.5781,995.9063 Q729.6094,995.4375 728.9219,994.4219 Q728.25,993.4063 728.25,992.2031 L728.25,991.1094 Q728.25,989.8594 728.8438,988.7656 Q729.4531,987.6719 730.5,987.0938 Q731.5625,986.5 732.75,986.5 Q733.4688,986.5 734.0938,986.75 Q734.7188,987 735.25,987.5 Z " fill="#000000"/><text fill="#000000" font-family="sans-serif" font-size="14" lengthAdjust="spacing" textLength="53" x="753.75" y="996.7285">LabyJeu</text><line style="stroke:#181818;stroke-width:0.5;" x1="664.5" x2="863.5" y1="1007" y2="1007"/><line style="stroke:#181818;stroke-width:0.5;" x1="664.5" x2="863.5" y1="1015" y2="1015"/><ellipse cx="674.5" cy="1026" fill="#84BE84" rx="3" ry="3" style="stroke:#038048;stroke-width:1.0;"/><text fill="#000000" font-family="sans-serif" font-size="14" lengthAdjust="spacing" textLength="126" x="683.5" y="1033.5332">«Create» LabyJeu()</text><ellipse cx="674.5" cy="1043.6094" fill="#84BE84" rx="3" ry="3" style="stroke:#038048;stroke-width:1.0;"/><text fill="#000000" font-family="sans-serif" font-size="14" lengthAdjust="spacing" textLength="175" x="683.5" y="1051.1426">void update(double,Clavier)</text><ellipse cx="674.5" cy="1061.2188" fill="#84BE84" rx="3" ry="3" style="stroke:#038048;stroke-width:1.0;"/><text fill="#000000" font-family="sans-serif" font-size="14" lengthAdjust="spacing" textLength="58" x="683.5" y="1068.752">void init()</text><ellipse cx="674.5" cy="1078.8281" fill="#84BE84" rx="3" ry="3" style="stroke:#038048;stroke-width:1.0;"/><text fill="#000000" font-family="sans-serif" font-size="14" lengthAdjust="spacing" textLength="113" x="683.5" y="1086.3613">boolean etreFini()</text><ellipse cx="674.5" cy="1096.4375" fill="#84BE84" rx="3" ry="3" style="stroke:#038048;stroke-width:1.0;"/><text fill="#000000" font-family="sans-serif" font-size="14" lengthAdjust="spacing" textLength="132" x="683.5" y="1103.9707">Labyrinthe getLaby()</text><ellipse cx="674.5" cy="1114.0469" fill="#84BE84" rx="3" ry="3" style="stroke:#038048;stroke-width:1.0;"/><text fill="#000000" font-family="sans-serif" font-size="14" lengthAdjust="spacing" textLength="108" x="683.5" y="1121.5801">Perso getPerso()</text></g><!--MD5=[b660eaee71b19604176468e288e616a0]
class gameLaby.laby.Perso--><g id="elem_gameLaby.laby.Perso"><rect codeLine="75" fill="#F1F1F1" height="136.0469" id="gameLaby.laby.Perso" rx="2.5" ry="2.5" style="stroke:#181818;stroke-width:0.5;" width="199" x="833.5" y="1304"/><ellipse cx="910.25" cy="1320" fill="#ADD1B2" rx="11" ry="11" style="stroke:#181818;stroke-width:1.0;"/><path d="M912.25,1316.5 Q912.4531,1316 912.6875,1315.75 Q912.9219,1315.5 913.1875,1315.5 Q913.6563,1315.5 913.9531,1315.7813 Q914.25,1316.0625 914.25,1316.7188 L914.25,1318.2813 Q914.25,1318.9375 913.9688,1319.2188 Q913.6875,1319.5 913.25,1319.5 Q912.8594,1319.5 912.6094,1319.3281 Q912.3594,1319.1563 912.25,1318.7031 Q912.2031,1318.3906 912.0313,1318.2188 Q911.7188,1317.8906 911.1563,1317.7031 Q910.5938,1317.5 910.0313,1317.5 Q909.3281,1317.5 908.7344,1317.7813 Q908.1563,1318.0625 907.7031,1318.6875 Q907.25,1319.3125 907.25,1320.1719 L907.25,1321.0938 Q907.25,1322.125 908.0938,1322.8125 Q908.9375,1323.5 910.4375,1323.5 Q911.3281,1323.5 911.9531,1323.2969 Q912.3125,1323.1875 912.7188,1322.8281 Q912.9844,1322.625 913.125,1322.5625 Q913.2656,1322.5 913.4375,1322.5 Q913.7656,1322.5 914,1322.7656 Q914.25,1323.0156 914.25,1323.375 Q914.25,1323.7188 913.9063,1324.125 Q913.4063,1324.7188 912.6094,1325.0469 Q911.5625,1325.5 910.2813,1325.5 Q908.7813,1325.5 907.5781,1324.9063 Q906.6094,1324.4375 905.9219,1323.4219 Q905.25,1322.4063 905.25,1321.2031 L905.25,1320.1094 Q905.25,1318.8594 905.8438,1317.7656 Q906.4531,1316.6719 907.5,1316.0938 Q908.5625,1315.5 909.75,1315.5 Q910.4688,1315.5 911.0938,1315.75 Q911.7188,1316 912.25,1316.5 Z " fill="#000000"/><text fill="#000000" font-family="sans-serif" font-size="14" lengthAdjust="spacing" textLength="37" x="930.75" y="1325.7285">Perso</text><line style="stroke:#181818;stroke-width:0.5;" x1="834.5" x2="1031.5" y1="1336" y2="1336"/><polygon fill="none" points="844.5,1343,840.5,1349,848.5,1349" style="stroke:#1963A0;stroke-width:1.0;"/><text fill="#000000" font-family="sans-serif" font-size="14" lengthAdjust="spacing" textLength="25" x="853.5" y="1354.5332">int x</text><line style="stroke:#181818;stroke-width:0.5;" x1="834.5" x2="1031.5" y1="1361.6094" y2="1361.6094"/><ellipse cx="844.5" cy="1372.6094" fill="#84BE84" rx="3" ry="3" style="stroke:#038048;stroke-width:1.0;"/><text fill="#000000" font-family="sans-serif" font-size="14" lengthAdjust="spacing" textLength="144" x="853.5" y="1380.1426">«Create» Perso(int,int)</text><ellipse cx="844.5" cy="1390.2188" fill="#84BE84" rx="3" ry="3" style="stroke:#038048;stroke-width:1.0;"/><text fill="#000000" font-family="sans-serif" font-size="14" lengthAdjust="spacing" textLength="173" x="853.5" y="1397.752">boolean etrePresent(int,int)</text><ellipse cx="844.5" cy="1407.8281" fill="#84BE84" rx="3" ry="3" style="stroke:#038048;stroke-width:1.0;"/><text fill="#000000" font-family="sans-serif" font-size="14" lengthAdjust="spacing" textLength="57" x="853.5" y="1415.3613">int getX()</text><ellipse cx="844.5" cy="1425.4375" fill="#84BE84" rx="3" ry="3" style="stroke:#038048;stroke-width:1.0;"/><text fill="#000000" font-family="sans-serif" font-size="14" lengthAdjust="spacing" textLength="58" x="853.5" y="1432.9707">int getY()</text></g><!--MD5=[e3612552781b2b3849880f2b7cc3064d]
class javafx.application.Application--><g id="elem_javafx.application.Application"><rect fill="#F1F1F1" height="48" id="javafx.application.Application" rx="2.5" ry="2.5" style="stroke:#181818;stroke-width:0.5;" width="101" x="486.5" y="42"/><ellipse cx="501.5" cy="58" fill="#ADD1B2" rx="11" ry="11" style="stroke:#181818;stroke-width:1.0;"/><path d="M503.5,54.5 Q503.7031,54 503.9375,53.75 Q504.1719,53.5 504.4375,53.5 Q504.9063,53.5 505.2031,53.7813 Q505.5,54.0625 505.5,54.7188 L505.5,56.2813 Q505.5,56.9375 505.2188,57.2188 Q504.9375,57.5 504.5,57.5 Q504.1094,57.5 503.8594,57.3281 Q503.6094,57.1563 503.5,56.7031 Q503.4531,56.3906 503.2813,56.2188 Q502.9688,55.8906 502.4063,55.7031 Q501.8438,55.5 501.2813,55.5 Q500.5781,55.5 499.9844,55.7813 Q499.4063,56.0625 498.9531,56.6875 Q498.5,57.3125 498.5,58.1719 L498.5,59.0938 Q498.5,60.125 499.3438,60.8125 Q500.1875,61.5 501.6875,61.5 Q502.5781,61.5 503.2031,61.2969 Q503.5625,61.1875 503.9688,60.8281 Q504.2344,60.625 504.375,60.5625 Q504.5156,60.5 504.6875,60.5 Q505.0156,60.5 505.25,60.7656 Q505.5,61.0156 505.5,61.375 Q505.5,61.7188 505.1563,62.125 Q504.6563,62.7188 503.8594,63.0469 Q502.8125,63.5 501.5313,63.5 Q500.0313,63.5 498.8281,62.9063 Q497.8594,62.4375 497.1719,61.4219 Q496.5,60.4063 496.5,59.2031 L496.5,58.1094 Q496.5,56.8594 497.0938,55.7656 Q497.7031,54.6719 498.75,54.0938 Q499.8125,53.5 501,53.5 Q501.7188,53.5 502.3438,53.75 Q502.9688,54 503.5,54.5 Z " fill="#000000"/><text fill="#000000" font-family="sans-serif" font-size="14" lengthAdjust="spacing" textLength="69" x="515.5" y="63.7285">Application</text><line style="stroke:#181818;stroke-width:0.5;" x1="487.5" x2="586.5" y1="74" y2="74"/><line style="stroke:#181818;stroke-width:0.5;" x1="487.5" x2="586.5" y1="82" y2="82"/></g><!--MD5=[98012c4b17afe8b59e54ed1a6adde1dc]
reverse link moteurJeu.DessinJeu to gameLaby.laby.LabyDessin--><g id="link_moteurJeu.DessinJeu_gameLaby.laby.LabyDessin"><path codeLine="96" d="M712.236,647.203 C718.111,696.378 726.789,769.025 732.159,813.973 " fill="none" id="moteurJeu.DessinJeu-backto-gameLaby.laby.LabyDessin" style="stroke:#181818;stroke-width:1.0;stroke-dasharray:7.0,7.0;"/><polygon fill="none" points="705.254,647.769,709.832,627.08,719.155,646.109,705.254,647.769" style="stroke:#181818;stroke-width:1.0;"/></g><!--MD5=[55b1fd11eabe894e48bdf5bcb9e93328]
reverse link moteurJeu.Jeu to gameLaby.laby.LabyJeu--><g id="link_moteurJeu.Jeu_gameLaby.laby.LabyJeu"><path codeLine="97" d="M936.096,664.222 C922.137,726.777 897.708,820.497 863,897 C850.985,923.484 834.911,950.71 819.215,974.764 " fill="none" id="moteurJeu.Jeu-backto-gameLaby.laby.LabyJeu" style="stroke:#181818;stroke-width:1.0;stroke-dasharray:7.0,7.0;"/><polygon fill="none" points="929.257,662.729,940.344,644.671,942.938,665.701,929.257,662.729" style="stroke:#181818;stroke-width:1.0;"/></g><!--MD5=[ecb6dee987b5ca053c24350e59fc57b0]
reverse link javafx.application.Application to moteurJeu.MoteurJeu--><g id="link_javafx.application.Application_moteurJeu.MoteurJeu"><path codeLine="98" d="M537,110.56 C537,129.35 537,152.19 537,174.85 " fill="none" id="javafx.application.Application-backto-moteurJeu.MoteurJeu" style="stroke:#181818;stroke-width:1.0;"/><polygon fill="none" points="530,110.28,537,90.28,544,110.28,530,110.28" style="stroke:#181818;stroke-width:1.0;"/></g><!--MD5=[c2c7be634c37acac64fa81d03d030da8]
link moteurJeu.MoteurJeu to moteurJeu.Clavier--><g id="link_moteurJeu.MoteurJeu_moteurJeu.Clavier"><path codeLine="99" d="M432.498,344.56 C383.218,377.02 324.511,417.99 275,459 C270.53,462.7 266.037,466.53 261.546,470.44 " fill="none" id="moteurJeu.MoteurJeu-to-moteurJeu.Clavier" style="stroke:#181818;stroke-width:1.0;"/><polygon fill="#181818" points="257.774,473.75,267.1763,470.8181,261.5314,470.4512,261.8983,464.8063,257.774,473.75" style="stroke:#181818;stroke-width:1.0;"/><rect fill="none" height="6" style="stroke:#C82930;stroke-width:1.0;" width="6" x="333" y="417.6758"/><text fill="#000000" font-family="sans-serif" font-size="13" lengthAdjust="spacing" textLength="46" x="343" y="425.4951">controle</text><text fill="#000000" font-family="sans-serif" font-size="13" lengthAdjust="spacing" textLength="7" x="417.5666" y="346.3507">1</text><text fill="#000000" font-family="sans-serif" font-size="13" lengthAdjust="spacing" textLength="7" x="265.5431" y="463.0399">1</text></g><!--MD5=[c10619b2e8687c28c235c39f4f5a730d]
link moteurJeu.MoteurJeu to moteurJeu.Jeu--><g id="link_moteurJeu.MoteurJeu_moteurJeu.Jeu"><path codeLine="100" d="M641.773,332.74 C700.583,365.33 773.641,410.01 832,459 C860.17,482.65 887.576,513.16 908.875,539.09 " fill="none" id="moteurJeu.MoteurJeu-to-moteurJeu.Jeu" style="stroke:#181818;stroke-width:1.0;"/><polygon fill="#181818" points="912.24,543.22,909.6537,533.7168,909.0807,539.3446,903.453,538.7716,912.24,543.22" style="stroke:#181818;stroke-width:1.0;"/><rect fill="none" height="6" style="stroke:#C82930;stroke-width:1.0;" width="6" x="790" y="417.6758"/><text fill="#000000" font-family="sans-serif" font-size="13" lengthAdjust="spacing" textLength="69" x="800" y="425.4951">&lt;static&gt; jeu</text><text fill="#000000" font-family="sans-serif" font-size="13" lengthAdjust="spacing" textLength="7" x="649.3859" y="333.5169">1</text><text fill="#000000" font-family="sans-serif" font-size="13" lengthAdjust="spacing" textLength="7" x="899.4378" y="532.486">1</text></g><!--MD5=[41b73a5c9fe56f49f07549ee14f64e07]
link moteurJeu.MoteurJeu to moteurJeu.DessinJeu--><g id="link_moteurJeu.MoteurJeu_moteurJeu.DessinJeu"><path codeLine="101" d="M600.149,381.16 C605.966,391.18 611.67,401.24 617,411 C643.943,460.34 671.933,519.01 689.162,556.13 " fill="none" id="moteurJeu.MoteurJeu-to-moteurJeu.DessinJeu" style="stroke:#181818;stroke-width:1.0;"/><polygon fill="#181818" points="691.417,561,691.2667,551.1523,689.3168,556.4625,684.0066,554.5126,691.417,561" style="stroke:#181818;stroke-width:1.0;"/><rect fill="none" height="6" style="stroke:#C82930;stroke-width:1.0;" width="6" x="627" y="417.6758"/><text fill="#000000" font-family="sans-serif" font-size="13" lengthAdjust="spacing" textLength="90" x="637" y="425.4951">&lt;static&gt; dessin</text><text fill="#000000" font-family="sans-serif" font-size="13" lengthAdjust="spacing" textLength="7" x="597.5295" y="402.8136">1</text><text fill="#000000" font-family="sans-serif" font-size="13" lengthAdjust="spacing" textLength="7" x="680.6874" y="550.1154">1</text></g><!--MD5=[096986cb861f432d82c02b1d067b9adf]
link moteurJeu.MoteurJeu to moteurJeu.FrameStats--><g id="link_moteurJeu.MoteurJeu_moteurJeu.FrameStats"><path codeLine="102" d="M501.46,381.38 C489.854,414.81 476.938,452.02 465.213,485.8 " fill="none" id="moteurJeu.MoteurJeu-to-moteurJeu.FrameStats" style="stroke:#181818;stroke-width:1.0;"/><polygon fill="#181818" points="463.492,490.76,470.2262,483.5731,465.1343,486.0374,462.67,480.9455,463.492,490.76" style="stroke:#181818;stroke-width:1.0;"/><rect fill="none" height="6" style="stroke:#C82930;stroke-width:1.0;" width="6" x="492" y="417.6758"/><text fill="#000000" font-family="sans-serif" font-size="13" lengthAdjust="spacing" textLength="106" x="502" y="425.4951">&lt;final&gt; frameStats</text><text fill="#000000" font-family="sans-serif" font-size="13" lengthAdjust="spacing" textLength="7" x="491.593" y="403.0497">1</text><text fill="#000000" font-family="sans-serif" font-size="13" lengthAdjust="spacing" textLength="7" x="458.8414" y="480.0811">1</text></g><!--MD5=[7e058d8952629d41a4b46f64376298cd]
link gameLaby.laby.LabyJeu to gameLaby.laby.Labyrinthe--><g id="link_gameLaby.laby.LabyJeu_gameLaby.laby.Labyrinthe"><path codeLine="103" d="M747.712,1129.169 C742.979,1151.304 737.61,1176.412 732.167,1201.866 " fill="none" id="gameLaby.laby.LabyJeu-to-gameLaby.laby.Labyrinthe" style="stroke:#181818;stroke-width:1.0;"/><polygon fill="#181818" points="731.077,1206.961,736.8711,1198.9968,732.1229,1202.0716,729.0481,1197.3234,731.077,1206.961" style="stroke:#181818;stroke-width:1.0;"/><rect fill="none" height="6" style="stroke:#C82930;stroke-width:1.0;" width="6" x="743" y="1165.6758"/><text fill="#000000" font-family="sans-serif" font-size="13" lengthAdjust="spacing" textLength="24" x="753" y="1173.4951">laby</text><text fill="#000000" font-family="sans-serif" font-size="13" lengthAdjust="spacing" textLength="20" x="725.3707" y="1150.2804">0..*</text><text fill="#000000" font-family="sans-serif" font-size="13" lengthAdjust="spacing" textLength="7" x="725.6065" y="1196.0891">1</text></g><!--MD5=[ee013944597a6fbb505dba769c29ea2d]
link gameLaby.laby.LabyJeu to gameLaby.laby.Perso--><g id="link_gameLaby.laby.LabyJeu_gameLaby.laby.Perso"><path codeLine="104" d="M804.48,1129.169 C831.921,1180.805 867.957,1248.611 894.885,1299.281 " fill="none" id="gameLaby.laby.LabyJeu-to-gameLaby.laby.Perso" style="stroke:#181818;stroke-width:1.0;"/><polygon fill="#181818" points="897.298,1303.821,896.6058,1293.9965,894.9512,1299.406,889.5418,1297.7514,897.298,1303.821" style="stroke:#181818;stroke-width:1.0;"/><rect fill="none" height="6" style="stroke:#C82930;stroke-width:1.0;" width="6" x="831" y="1165.6758"/><text fill="#000000" font-family="sans-serif" font-size="13" lengthAdjust="spacing" textLength="32" x="841" y="1173.4951">perso</text><text fill="#000000" font-family="sans-serif" font-size="13" lengthAdjust="spacing" textLength="7" x="800.7735" y="1150.2804">1</text><text fill="#000000" font-family="sans-serif" font-size="13" lengthAdjust="spacing" textLength="7" x="886.0103" y="1293.0007">1</text></g><!--MD5=[9c4edca7cf8de452e63db43e2e328884]
link gameLaby.laby.LabyDessin to gameLaby.laby.LabyJeu--><g id="link_gameLaby.laby.LabyDessin_gameLaby.laby.LabyJeu"><path codeLine="105" d="M742.66,897.274 C745.588,918.369 749.27,944.89 752.747,969.936 " fill="none" id="gameLaby.laby.LabyDessin-to-gameLaby.laby.LabyJeu" style="stroke:#181818;stroke-width:1.0;"/><polygon fill="#181818" points="753.439,974.924,756.1643,965.4597,752.7519,969.9714,748.2402,966.5591,753.439,974.924" style="stroke:#181818;stroke-width:1.0;"/><rect fill="none" height="6" style="stroke:#C82930;stroke-width:1.0;" width="6" x="751" y="933.6758"/><text fill="#000000" font-family="sans-serif" font-size="13" lengthAdjust="spacing" textLength="17" x="761" y="941.4951">lab</text><text fill="#000000" font-family="sans-serif" font-size="13" lengthAdjust="spacing" textLength="7" x="736.0043" y="918.7124">1</text><text fill="#000000" font-family="sans-serif" font-size="13" lengthAdjust="spacing" textLength="7" x="745.0549" y="964.0787">1</text></g><!--MD5=[64a72c120db47be9742f99bcaa765544]
@startuml

skinparam class{
  BackgroundColor<<Nouveau>> Orange
  BorderColor<<Nouveau>> Black
}

class moteurJeu.Clavier<<Nouveau>>
{
    + haut  : boolean
    + bas : boolean
    + gauche : boolean
    + droit : boolean

    - toucheHaut : KeyCode
    - toucheBas : KeyCode
    - toucheGauche : KeyCode
    - toucheDroite : KeyCode

    + appuyerTouche(KeyEvent event)
    + relacherTouche(KeyEvent event)
    + configurerTouches(String file)
}

class moteurJeu.FrameStats {
- long frameCount
- double meanFrameInterval
- ReadOnlyStringWrapper text
+ long getFrameCount()
+ double getMeanFrameInterval()
+ void addFrame(long)
+ String getText()
+ ReadOnlyStringProperty textProperty()
+ String toString()
}
class gameLaby.laby.Labyrinthe {
+ {static} char MUR
+ {static} char PJ
+ {static} char VIDE
+ {static} String HAUT
+ {static} String BAS
+ {static} String GAUCHE
+ {static} String DROITE
+ Perso pj
+ boolean[][] murs
+ <<Create>> Labyrinthe(String)
~ {static} int[] getSuivant(int,int,String)
+ void deplacerPerso(String)
+ boolean etreFini()
+ int getLengthY()
+ int getLength()
+ boolean getMur(int,int)
}
interface moteurJeu.DessinJeu {
~ void dessinerJeu(Jeu,Canvas)
}
class gameLaby.laby.LabyDessin {
~ char getChar(int,int)
+ void dessinerJeu(Jeu,Canvas)
}

class gameLaby.laby.LabyJeu {
+ <<Create>> LabyJeu()
+ void update(double,Clavier)
+ void init()
+ boolean etreFini()
+ Labyrinthe getLaby()
+ Perso getPerso()
}
interface moteurJeu.Jeu {
~ void update(double,Clavier)
~ void init()
~ boolean etreFini()
}

class gameLaby.laby.Perso {
~ int x
+ <<Create>> Perso(int,int)
+ boolean etrePresent(int,int)
+ int getX()
+ int getY()
}

class moteurJeu.MoteurJeu {
- {static} double FPS
- {static} double dureeFPS
- {static} double WIDTH
- {static} double HEIGHT
+ {static} void launch(Jeu,DessinJeu)
+ {static} void setFPS(int)
+ {static} void setTaille(double,double)
+ void start(Stage)
- void startAnimation(Canvas)
}


moteurJeu.DessinJeu <|.. gameLaby.laby.LabyDessin
moteurJeu.Jeu <|.. gameLaby.laby.LabyJeu
javafx.application.Application <|- - moteurJeu.MoteurJeu
moteurJeu.MoteurJeu "1" - -> "1" moteurJeu.Clavier : - controle
moteurJeu.MoteurJeu "1" - -> "1" moteurJeu.Jeu : - <static> jeu
moteurJeu.MoteurJeu "1" - -> "1" moteurJeu.DessinJeu : - <static> dessin
moteurJeu.MoteurJeu "1" - -> "1" moteurJeu.FrameStats : - <final> frameStats
gameLaby.laby.LabyJeu "0..*" - -> "1" gameLaby.laby.Labyrinthe : - laby
gameLaby.laby.LabyJeu "1" - -> "1" gameLaby.laby.Perso : - perso
gameLaby.laby.LabyDessin "1" - -> "1" gameLaby.laby.LabyJeu : - lab

@enduml

PlantUML version 1.2022.5(Sat Apr 30 12:55:52 CEST 2022)
(GPL source distribution)
Java Runtime: OpenJDK Runtime Environment
JVM: OpenJDK 64-Bit Server VM
Default Encoding: Cp1252
Language: fr
Country: FR
--></g></svg>